<svg width="22" height="22" viewBox="0 0 22 22" fill="none" xmlns="http://www.w3.org/2000/svg">
<path fill-rule="evenodd" clip-rule="evenodd" d="M18.6117 7.87741C18.6417 7.89982 18.6417 7.9525 18.6642 8.00505C19.1074 9.01913 19.3177 10.1159 19.3177 11.2652C19.3177 12.3844 19.1074 13.4286 18.6642 14.4502C18.2511 15.4643 17.6503 16.3807 16.8918 17.1319C16.1106 17.8906 15.2245 18.4915 14.2105 18.9346C13.4219 19.2727 12.6183 19.453 11.7545 19.5356V19.3478C11.7545 16.3281 12.3329 13.8492 13.5046 11.9186C14.6536 10.0106 16.3434 8.65861 18.6117 7.87741ZM17.2597 5.73655H4.7176C4.84528 5.6013 4.95038 5.47366 5.07806 5.34588C5.83661 4.58722 6.72286 3.98635 7.76678 3.54313C8.78068 3.12993 9.82471 2.91959 10.9512 2.91959H11.0037C12.1228 2.91959 13.2192 3.12993 14.2333 3.57314C15.2546 3.98635 16.1408 4.58722 16.892 5.34588C17.0271 5.47366 17.1321 5.6013 17.2597 5.73655ZM3.46252 7.63693H14.3151C13.2186 8.39572 12.3324 9.31216 11.6791 10.4313C11.0255 11.5281 10.4548 13.1131 10.0116 15.2314C9.64362 16.9215 9.46333 18.2587 9.46333 19.2727V19.4305C8.86256 19.3253 8.31422 19.1676 7.76598 18.9347C6.75209 18.4915 5.83579 17.8906 5.07726 17.132C4.32625 16.3808 3.74797 15.4869 3.30483 14.4502C2.89176 13.4287 2.68149 12.3845 2.68149 11.2653C2.68149 10.146 2.89176 9.04922 3.30483 8.00513C3.35741 7.87748 3.40995 7.77218 3.46252 7.63693ZM21.3002 11.2053C21.2929 9.8154 21.0297 8.5058 20.4892 7.27641C19.9485 6.02198 19.2126 4.92521 18.2511 3.96368C17.3123 3.02482 16.2158 2.29618 14.9615 1.74773C13.7373 1.19941 12.408 0.936516 11.0035 0.936516C9.59164 0.936516 8.26222 1.19941 7.00801 1.74773C5.73113 2.29618 4.63468 3.02482 3.69586 3.96368C2.7871 4.90279 2.05864 5.99944 1.51029 7.27641C0.962052 8.52336 0.699219 9.85301 0.699219 11.2652C0.699219 12.6473 0.962052 13.9769 1.51029 15.2014C2.02852 16.4783 2.75703 17.5752 3.69586 18.5141C4.66471 19.4531 5.76127 20.1817 7.00801 20.73C8.26222 21.2559 9.59164 21.5187 11.0035 21.5187C12.3856 21.5187 13.7149 21.2559 14.9615 20.73C16.1933 20.1817 17.2821 19.4531 18.2511 18.4915C19.2126 17.5526 19.9485 16.4558 20.4892 15.2014C21.0311 13.9911 21.2943 12.6782 21.3003 11.3132C21.3003 11.2973 21.3002 11.2213 21.3002 11.2053Z" fill="#2E3B7D" fill-opacity="0.6"/>
<path d="M18.4489 7.40466L18.699 7.31852L18.9109 7.47683C18.9961 7.54046 19.0458 7.61576 19.0743 7.67119C19.1009 7.72308 19.1149 7.76987 19.1208 7.79006C19.122 7.79414 19.1231 7.79815 19.1242 7.80185C19.126 7.80846 19.1275 7.81411 19.1284 7.8175L19.1293 7.82065C19.598 8.89966 19.8177 10.0601 19.8177 11.2652C19.8177 12.4488 19.5949 13.5593 19.1252 14.644C18.6881 15.7151 18.0514 16.6872 17.2436 17.4872L17.2436 17.4872L17.2401 17.4906C16.4167 18.2903 15.4806 18.9253 14.4108 19.3928L14.4108 19.3928L14.4075 19.3942C13.5625 19.7564 12.7069 19.9468 11.8022 20.0333L11.2545 20.0857V19.5356V19.3478C11.2545 16.2682 11.8439 13.6916 13.0767 11.6599C14.2896 9.64611 16.0764 8.22176 18.4489 7.40466ZM17.6234 5.39338L18.419 6.23655H17.2597H4.7176H3.55798L4.35402 5.39331C4.38639 5.35903 4.42797 5.31287 4.47376 5.26204C4.55331 5.17374 4.64557 5.07133 4.72437 4.99246L4.72448 4.99236C5.52917 4.18756 6.46936 3.55078 7.57137 3.0829L7.57135 3.08285L7.57807 3.08011C8.65113 2.6428 9.75919 2.41959 10.9512 2.41959H11.0037C12.1832 2.41959 13.3463 2.64093 14.4272 3.11223C15.5079 3.55046 16.4468 4.18708 17.2417 4.98848C17.3419 5.08388 17.441 5.19324 17.5241 5.28505C17.5607 5.32546 17.5942 5.36246 17.6234 5.39338ZM2.99649 7.45579L3.12043 7.13693H3.46252H14.3151H15.9164L14.5996 8.0481C13.5561 8.77021 12.7232 9.6345 12.1109 10.6834L12.1109 10.6834L12.1086 10.6873C11.4941 11.7185 10.9382 13.2443 10.501 15.3338L10.501 15.3338L10.5002 15.3377C10.1354 17.0133 9.96333 18.3105 9.96333 19.2727V19.4305V20.0256L9.37711 19.923C8.74169 19.8118 8.15641 19.6438 7.5705 19.3949L7.57049 19.3949L7.56572 19.3929C6.50149 18.9277 5.53133 18.2933 4.72367 17.4855L4.72366 17.4855C3.92154 16.6832 3.30967 15.7336 2.84507 14.6468L2.84498 14.6468L2.84129 14.6377C2.40477 13.5581 2.18149 12.4504 2.18149 11.2653C2.18149 10.0826 2.40382 8.92341 2.83989 7.82119L2.83984 7.82117L2.84251 7.81469C2.86786 7.75316 2.89345 7.69568 2.91581 7.64546C2.91953 7.63709 2.92317 7.62893 2.9267 7.62098C2.95231 7.5633 2.97465 7.51198 2.99649 7.45579ZM20.0315 7.47765L20.0301 7.47434C19.5136 6.27622 18.813 5.23269 17.8975 4.31723C17.0064 3.42604 15.9631 2.7314 14.7612 2.20585L14.7612 2.20587L14.7571 2.20405C13.6033 1.68728 12.3446 1.43652 11.0035 1.43652C9.65571 1.43652 8.39503 1.68704 7.2083 2.20587L7.20534 2.20714C5.98387 2.73179 4.94246 3.4249 4.05232 4.31433C3.18866 5.20755 2.49443 6.25179 1.96972 7.47369L1.96974 7.4737L1.96801 7.47764C1.44977 8.65636 1.19922 9.91683 1.19922 11.2652C1.19922 12.5834 1.44971 13.8426 1.96664 14.997L1.97026 15.0051L1.97359 15.0133C2.46655 16.228 3.15716 17.2675 4.04665 18.1578C4.96961 19.0516 6.01383 19.7461 7.20533 20.2706C8.39496 20.7687 9.65712 21.0187 11.0035 21.0187C12.3194 21.0187 13.5808 20.769 14.7626 20.2713C15.9401 19.7465 16.9764 19.0521 17.8989 18.1366L17.8989 18.1366L17.9018 18.1338C18.8135 17.2434 19.5134 16.202 20.0301 15.0034L20.03 15.0034L20.0329 14.997C20.5436 13.8563 20.7944 12.6135 20.8003 11.3125L20.8002 11.2599L20.8002 11.2079C20.8002 11.2075 20.8002 11.2072 20.8002 11.2068C20.7931 9.88053 20.5423 8.63952 20.0315 7.47765Z" stroke="#2E3B7D" stroke-opacity="0.6"/>
</svg>
