<svg width="191" height="197" viewBox="0 0 191 197" fill="none" xmlns="http://www.w3.org/2000/svg">
<path d="M68.1778 131.692V156.475L66.3098 156.008L60.7059 154.14C51.833 152.739 47.1631 153.206 47.1631 153.206L68.1778 131.692Z" fill="#2D72B5"/>
<path d="M118.146 143.867V109.309L140.562 85.9595L141.029 120.984L118.146 143.867Z" fill="#2D72B5"/>
<path d="M0 103.238L32.2225 71.4827V88.2944L16.8117 103.238L42.9633 129.39L34.5575 137.796L0 103.238Z" fill="#14AAF5"/>
<path d="M93.3978 90.1624L4.20215 179.358L12.141 177.023C31.7547 171.419 56.5053 173.287 56.5053 173.287C70.9821 173.287 93.3978 196.17 93.3978 196.17L186.329 103.238L161.112 78.0206L152.706 85.9595L169.985 103.238L92.9308 180.292L84.9919 174.221C78.921 169.551 65.8452 163.947 65.8452 163.947C55.1044 159.744 39.2266 161.145 39.2266 161.145L46.6985 153.673L68.1801 131.725L82.1899 118.182L93.3978 106.974L104.606 118.182L106.941 120.05L118.148 109.309L141.031 85.4925L173.72 53.737L180.258 60.7419L190.999 28.0524L158.777 37.8592L166.249 45.3311L106.941 103.705L93.3978 90.1624Z" fill="#14AAF5"/>
<path d="M68.6467 35.7979L36.125 67.7468H39.2261C44.363 67.2798 45.297 73.3507 45.297 73.3507V121.451L48.566 124.253L68.6467 104.639V35.7979Z" fill="#7AD3FF"/>
<path d="M105.074 0L82.1914 22.4849V90.6294L93.3992 79.4216L105.074 90.6294V0Z" fill="#7AD3FF"/>
<path d="M118.146 80.8225V27.5854L141.029 5.16974V42.0622C140.562 51.869 151.303 48.6001 151.303 48.6001L118.146 80.8225Z" fill="#7AD3FF"/>
<path d="M93.3962 94.3654L12.6064 175.155L48.0979 142.466L93.8632 99.5023L107.873 113.045L188.663 31.7883L162.978 39.2602L169.049 44.8641L107.873 107.441L93.3962 94.3654Z" fill="#7AD3FF"/>
<path d="M82.1914 164.848V121.213L93.3992 109.276L105.074 120.22V159.711L93.3992 171.386L82.1914 164.848Z" fill="#2D72B5"/>
</svg>
