<svg width="24" height="24" viewBox="0 0 24 24" fill="none" xmlns="http://www.w3.org/2000/svg">
<path d="M12 22.75C17.9371 22.75 22.75 17.9371 22.75 12C22.75 6.06294 17.9371 1.25 12 1.25C6.06294 1.25 1.25 6.06294 1.25 12C1.25 17.9371 6.06294 22.75 12 22.75Z" stroke="#2E3B7D" stroke-opacity="0.6" stroke-width="1.5" stroke-linecap="round" stroke-linejoin="round"/>
<path d="M1.28027 11.2C3.93527 11.2 3.94527 12.8 6.62527 12.8C9.30527 12.8 9.31027 11.2 12.0003 11.2C14.6903 11.2 14.6903 12.8 17.3803 12.8C20.0703 12.8 20.0653 11.21 22.7253 11.2M2.58527 6.80501C4.04527 7.21501 4.47527 8.24001 6.62527 8.24001C9.31027 8.24001 9.31027 6.64001 11.9953 6.64001C14.6803 6.64001 14.6853 8.24001 17.3753 8.24001C19.5253 8.24001 19.9553 7.21501 21.4153 6.80501M1.94027 15.8C3.94027 16.05 4.19027 17.36 6.62527 17.36C9.31027 17.36 9.31027 15.76 11.9953 15.76C14.6803 15.76 14.6853 17.36 17.3753 17.36C19.8103 17.36 20.0403 16.045 22.0603 15.8" stroke="#2E3B7D" stroke-opacity="0.6" stroke-width="1.5" stroke-linecap="round" stroke-linejoin="round"/>
</svg>
