<svg width="24" height="25" viewBox="0 0 24 25" fill="none" xmlns="http://www.w3.org/2000/svg">
<path d="M21.447 12.1974C21.447 17.43 17.206 21.6759 11.9705 21.6759C6.7345 21.6759 2.494 17.43 2.494 12.1974C2.494 6.98131 6.705 2.75241 11.9075 2.7189V0.224365C5.328 0.257872 0 5.60402 0 12.1969C0 18.8073 5.3575 24.1705 11.97 24.1705C18.5835 24.1705 23.941 18.8073 23.941 12.1974V12.1469H21.447V12.1974Z" fill="#2E3B7D" fill-opacity="0.6"/>
<path d="M11.9705 22.1759C17.3317 22.1759 21.702 17.9471 21.9371 12.6469H23.4324C23.1963 18.7728 18.1565 23.6705 11.97 23.6705C5.63389 23.6705 0.5 18.5314 0.5 12.1969C0.5 6.04804 5.33646 1.03098 11.4075 0.737753V2.23429C6.16151 2.52597 1.994 6.87326 1.994 12.1974C1.994 17.7059 6.4581 22.1759 11.9705 22.1759Z" stroke="#2E3B7D" stroke-opacity="0.6"/>
<path d="M14.0497 12.1984C14.0494 12.7498 13.8304 13.2786 13.4407 13.6686C13.0509 14.0586 12.5224 14.2779 11.9712 14.2783C11.4202 14.2779 10.8918 14.0588 10.5021 13.669C10.1124 13.2792 9.89323 12.7507 9.8927 12.1994C9.89245 11.6597 10.1023 11.1412 10.4779 10.7537C10.8534 10.3663 11.365 10.1404 11.9042 10.124V7.763C9.4857 7.79702 7.5332 9.77136 7.5332 12.1994C7.5336 13.3757 8.0009 14.5037 8.83236 15.3354C9.66383 16.1672 10.7914 16.6345 11.9672 16.6348C13.1429 16.6344 14.2704 16.167 15.1017 15.3353C15.9331 14.5035 16.4003 13.3756 16.4007 12.1994V12.1484H14.0412C14.048 12.1641 14.0509 12.1813 14.0497 12.1984Z" fill="#2E3B7D" fill-opacity="0.6"/>
<path d="M11.4042 8.30268C9.49946 8.57642 8.03329 10.2175 8.0332 12.1992L11.4042 8.30268ZM11.4042 8.30268V9.68538C10.9181 9.79435 10.4704 10.043 10.1188 10.4057C9.65283 10.8865 9.39239 11.53 9.3927 12.1996L9.3927 12.1999C9.39336 12.8836 9.66516 13.5391 10.1485 14.0225C10.6319 14.5059 11.2873 14.7778 11.9708 14.7783L11.9716 14.7783C12.6554 14.7778 13.3109 14.5058 13.7943 14.0221C14.1704 13.6457 14.4183 13.1652 14.51 12.6484M11.4042 8.30268L14.51 12.6484M14.51 12.6484H15.8749C15.7738 13.5267 15.3791 14.3505 14.7481 14.9818C14.0105 15.7197 13.0103 16.1344 11.9673 16.1348L14.51 12.6484ZM9.18597 14.9819C8.44826 14.244 8.0336 13.2432 8.0332 12.1994L11.967 16.1348C10.924 16.1345 9.92365 15.7198 9.18597 14.9819Z" stroke="#2E3B7D" stroke-opacity="0.6"/>
<path d="M11.9704 4.06665C9.71539 4.06665 7.67539 4.98685 6.20139 6.46916L7.93539 8.20353C8.46239 7.66878 9.09063 7.24441 9.78342 6.95521C10.4762 6.66601 11.2197 6.51778 11.9704 6.51917C15.1069 6.51917 17.6514 9.06472 17.6514 12.2014C17.6514 15.3386 15.1069 17.8836 11.9704 17.8836C11.2078 17.8848 10.4528 17.7318 9.75076 17.4338C9.04876 17.1358 8.41425 16.6988 7.88539 16.1492L6.15039 17.8836C6.90718 18.661 7.8122 19.2786 8.81189 19.6998C9.81158 20.1211 10.8856 20.3375 11.9704 20.3361C16.4584 20.3361 20.0989 16.6953 20.0989 12.2054C20.0989 7.71643 16.4629 4.06665 11.9704 4.06665Z" fill="#2E3B7D" fill-opacity="0.6"/>
<path d="M11.9698 19.8361H11.9704C16.1821 19.8361 19.5989 16.4193 19.5989 12.2054C19.5989 7.99161 16.1858 4.56665 11.9704 4.56665C10.0335 4.56665 8.26595 5.28958 6.91886 6.4796L7.94743 7.5084C8.4376 7.08645 8.99205 6.74375 9.59081 6.4938C10.3448 6.17907 11.1539 6.01772 11.9709 6.01917M11.9698 19.8361L11.9704 17.8836M11.9698 19.8361C10.9519 19.8374 9.9441 19.6343 9.00605 19.2391C8.21983 18.9078 7.496 18.447 6.86417 17.8771M11.9698 19.8361L7.88539 16.1492L7.53171 16.5028C7.64773 16.623 7.76841 16.7382 7.89339 16.8482M11.9709 6.01917C15.3834 6.01943 18.1514 8.78886 18.1514 12.2014C18.1514 15.6146 15.3831 18.3836 11.9704 18.3836M11.9709 6.01917C11.9707 6.01917 11.9705 6.01917 11.9704 6.01917V6.51917L11.9713 6.01918C11.9712 6.01917 11.971 6.01917 11.9709 6.01917ZM11.9704 18.3836V17.8836M11.9704 18.3836C11.9707 18.3836 11.9709 18.3836 11.9712 18.3836L11.9704 17.8836M11.9704 18.3836C11.1406 18.3848 10.3192 18.2183 9.55535 17.894C8.94799 17.6362 8.38705 17.2828 7.89339 16.8482M11.9704 17.8836C11.2078 17.8848 10.4528 17.7318 9.75076 17.4338C9.11485 17.1638 8.53434 16.7799 8.03755 16.3014L8.23888 16.5028L7.89339 16.8482M7.89339 16.8482L6.86417 17.8771M6.86417 17.8771C6.74216 17.767 6.62359 17.6529 6.50865 17.5348L6.15039 17.8836L6.30209 18.0354C6.37033 18.1018 6.43967 18.1671 6.51011 18.231L6.86417 17.8771ZM7.93539 8.20353C7.955 8.18363 7.97476 8.16388 7.99465 8.14429L7.93539 8.20353Z" stroke="#2E3B7D" stroke-opacity="0.6"/>
</svg>
