<svg width="1109" height="459" viewBox="0 0 1109 459" fill="none" xmlns="http://www.w3.org/2000/svg">
<path d="M635 213.167L1102 35V409H100L635 213.167Z" fill="url(#paint0_linear_134_4862)"/>
<line x1="91.5" y1="-2.18557e-08" x2="91.5" y2="408" stroke="black" stroke-opacity="0.25" stroke-dasharray="4 4"/>
<line x1="1107" y1="409.5" x2="91" y2="409.5" stroke="black" stroke-opacity="0.25" stroke-dasharray="4 4"/>
<line x1="1107" y1="324.5" x2="91" y2="324.5" stroke="black" stroke-opacity="0.25" stroke-dasharray="4 4"/>
<line x1="1107" y1="239.5" x2="91" y2="239.5" stroke="black" stroke-opacity="0.25" stroke-dasharray="4 4"/>
<line x1="1107" y1="154.5" x2="91" y2="154.5" stroke="black" stroke-opacity="0.25" stroke-dasharray="4 4"/>
<line x1="1107" y1="69.5298" x2="91" y2="69.5297" stroke="black" stroke-opacity="0.25" stroke-dasharray="4 4"/>
<path d="M95.79 409.3L1102.14 30.2378" stroke="#398AB6" stroke-opacity="0.15" stroke-width="12" stroke-linecap="round"/>
<path d="M95.79 409.3L1102.14 30.2378" stroke="url(#paint1_linear_134_4862)" stroke-width="12" stroke-linecap="round"/>
<path d="M515.409 455V443.364H519.341C520.254 443.364 521 443.529 521.58 443.858C522.163 444.184 522.595 444.625 522.875 445.182C523.155 445.739 523.295 446.36 523.295 447.046C523.295 447.732 523.155 448.355 522.875 448.915C522.598 449.476 522.17 449.923 521.591 450.256C521.011 450.586 520.269 450.75 519.364 450.75H516.545V449.5H519.318C519.943 449.5 520.445 449.393 520.824 449.177C521.203 448.961 521.477 448.669 521.648 448.302C521.822 447.93 521.909 447.512 521.909 447.046C521.909 446.58 521.822 446.163 521.648 445.796C521.477 445.429 521.201 445.141 520.818 444.932C520.436 444.72 519.928 444.614 519.295 444.614H516.818V455H515.409ZM525.384 455V446.273H526.679V447.591H526.77C526.929 447.16 527.217 446.809 527.634 446.54C528.05 446.271 528.52 446.137 529.043 446.137C529.141 446.137 529.264 446.139 529.412 446.143C529.56 446.146 529.671 446.152 529.747 446.16V447.523C529.702 447.512 529.598 447.495 529.435 447.472C529.276 447.446 529.107 447.432 528.929 447.432C528.505 447.432 528.126 447.521 527.793 447.699C527.463 447.874 527.202 448.116 527.009 448.427C526.819 448.733 526.724 449.084 526.724 449.478V455H525.384ZM534.616 455.182C533.829 455.182 533.137 454.995 532.543 454.62C531.952 454.245 531.49 453.72 531.156 453.046C530.827 452.372 530.662 451.584 530.662 450.682C530.662 449.773 530.827 448.98 531.156 448.302C531.49 447.624 531.952 447.097 532.543 446.722C533.137 446.347 533.829 446.16 534.616 446.16C535.404 446.16 536.094 446.347 536.685 446.722C537.279 447.097 537.741 447.624 538.071 448.302C538.404 448.98 538.571 449.773 538.571 450.682C538.571 451.584 538.404 452.372 538.071 453.046C537.741 453.72 537.279 454.245 536.685 454.62C536.094 454.995 535.404 455.182 534.616 455.182ZM534.616 453.978C535.215 453.978 535.707 453.824 536.094 453.518C536.48 453.211 536.766 452.807 536.952 452.307C537.137 451.807 537.23 451.266 537.23 450.682C537.23 450.099 537.137 449.555 536.952 449.052C536.766 448.548 536.48 448.141 536.094 447.83C535.707 447.519 535.215 447.364 534.616 447.364C534.018 447.364 533.526 447.519 533.139 447.83C532.753 448.141 532.467 448.548 532.281 449.052C532.096 449.555 532.003 450.099 532.003 450.682C532.003 451.266 532.096 451.807 532.281 452.307C532.467 452.807 532.753 453.211 533.139 453.518C533.526 453.824 534.018 453.978 534.616 453.978ZM544.504 446.273V447.41H539.8V446.273H544.504ZM541.209 455V445.069C541.209 444.569 541.326 444.152 541.561 443.819C541.796 443.485 542.101 443.235 542.476 443.069C542.851 442.902 543.247 442.819 543.663 442.819C543.993 442.819 544.262 442.845 544.47 442.898C544.679 442.951 544.834 443 544.936 443.046L544.55 444.205C544.482 444.182 544.387 444.154 544.266 444.12C544.148 444.086 543.993 444.069 543.8 444.069C543.357 444.069 543.036 444.18 542.839 444.404C542.646 444.627 542.55 444.955 542.55 445.387V455H541.209ZM546.384 455V446.273H547.724V455H546.384ZM547.065 444.819C546.804 444.819 546.579 444.73 546.389 444.552C546.204 444.374 546.111 444.16 546.111 443.91C546.111 443.66 546.204 443.446 546.389 443.268C546.579 443.09 546.804 443 547.065 443C547.327 443 547.55 443.09 547.736 443.268C547.925 443.446 548.02 443.66 548.02 443.91C548.02 444.16 547.925 444.374 547.736 444.552C547.55 444.73 547.327 444.819 547.065 444.819ZM553.976 446.273V447.41H549.453V446.273H553.976ZM550.771 444.182H552.112V452.5C552.112 452.879 552.167 453.163 552.277 453.353C552.391 453.538 552.535 453.663 552.709 453.728C552.887 453.788 553.074 453.819 553.271 453.819C553.419 453.819 553.54 453.811 553.635 453.796C553.73 453.777 553.805 453.762 553.862 453.75L554.135 454.955C554.044 454.989 553.917 455.023 553.754 455.057C553.591 455.095 553.385 455.114 553.135 455.114C552.756 455.114 552.385 455.033 552.021 454.87C551.661 454.707 551.362 454.459 551.124 454.125C550.889 453.792 550.771 453.372 550.771 452.864V444.182ZM567.038 446.273C566.97 445.697 566.694 445.25 566.209 444.932C565.724 444.614 565.129 444.455 564.425 444.455C563.91 444.455 563.459 444.538 563.072 444.705C562.69 444.872 562.391 445.101 562.175 445.393C561.963 445.684 561.857 446.016 561.857 446.387C561.857 446.697 561.93 446.965 562.078 447.188C562.23 447.408 562.423 447.591 562.658 447.739C562.893 447.883 563.139 448.002 563.396 448.097C563.654 448.188 563.891 448.262 564.107 448.319L565.288 448.637C565.591 448.716 565.929 448.826 566.3 448.966C566.675 449.107 567.033 449.298 567.374 449.54C567.718 449.779 568.002 450.086 568.226 450.461C568.449 450.836 568.561 451.296 568.561 451.841C568.561 452.47 568.396 453.038 568.067 453.546C567.741 454.054 567.264 454.457 566.635 454.756C566.01 455.055 565.25 455.205 564.357 455.205C563.523 455.205 562.802 455.071 562.192 454.802C561.586 454.533 561.108 454.158 560.76 453.677C560.415 453.196 560.22 452.637 560.175 452H561.629C561.667 452.44 561.815 452.804 562.072 453.091C562.334 453.375 562.663 453.588 563.061 453.728C563.463 453.864 563.894 453.932 564.357 453.932C564.894 453.932 565.377 453.845 565.805 453.671C566.233 453.493 566.572 453.247 566.822 452.932C567.072 452.614 567.197 452.243 567.197 451.819C567.197 451.432 567.089 451.118 566.874 450.875C566.658 450.633 566.374 450.436 566.021 450.285C565.669 450.133 565.288 450 564.879 449.887L563.447 449.478C562.538 449.216 561.819 448.843 561.288 448.358C560.758 447.874 560.493 447.239 560.493 446.455C560.493 445.804 560.669 445.235 561.021 444.75C561.377 444.262 561.855 443.883 562.453 443.614C563.055 443.341 563.728 443.205 564.47 443.205C565.22 443.205 565.887 443.34 566.47 443.608C567.054 443.874 567.516 444.237 567.857 444.699C568.201 445.161 568.383 445.686 568.402 446.273H567.038ZM572.037 449.75V455H570.696V443.364H572.037V447.637H572.151C572.355 447.186 572.662 446.828 573.071 446.563C573.484 446.294 574.033 446.16 574.719 446.16C575.313 446.16 575.834 446.279 576.281 446.518C576.728 446.752 577.075 447.114 577.321 447.603C577.571 448.088 577.696 448.705 577.696 449.455V455H576.355V449.546C576.355 448.853 576.175 448.317 575.815 447.938C575.459 447.555 574.965 447.364 574.332 447.364C573.893 447.364 573.499 447.457 573.151 447.643C572.806 447.828 572.533 448.099 572.332 448.455C572.135 448.811 572.037 449.243 572.037 449.75ZM582.717 455.205C582.164 455.205 581.662 455.101 581.212 454.893C580.761 454.68 580.403 454.375 580.138 453.978C579.873 453.576 579.74 453.091 579.74 452.523C579.74 452.023 579.839 451.618 580.036 451.307C580.232 450.993 580.496 450.747 580.825 450.569C581.155 450.391 581.518 450.258 581.916 450.171C582.318 450.08 582.721 450.008 583.126 449.955C583.657 449.887 584.087 449.836 584.416 449.802C584.75 449.764 584.992 449.701 585.143 449.614C585.299 449.527 585.376 449.375 585.376 449.16V449.114C585.376 448.554 585.223 448.118 584.916 447.807C584.613 447.497 584.153 447.341 583.536 447.341C582.895 447.341 582.393 447.482 582.03 447.762C581.666 448.042 581.411 448.341 581.263 448.66L579.99 448.205C580.217 447.675 580.52 447.262 580.899 446.966C581.282 446.667 581.698 446.459 582.149 446.341C582.604 446.22 583.051 446.16 583.49 446.16C583.77 446.16 584.092 446.194 584.456 446.262C584.823 446.326 585.178 446.461 585.518 446.665C585.863 446.87 586.149 447.179 586.376 447.591C586.604 448.004 586.717 448.557 586.717 449.25V455H585.376V453.819H585.308C585.217 454.008 585.066 454.211 584.854 454.427C584.642 454.643 584.359 454.826 584.007 454.978C583.655 455.129 583.225 455.205 582.717 455.205ZM582.922 454C583.452 454 583.899 453.896 584.263 453.688C584.63 453.48 584.907 453.211 585.092 452.881C585.282 452.552 585.376 452.205 585.376 451.841V450.614C585.32 450.682 585.195 450.745 585.001 450.802C584.812 450.855 584.592 450.902 584.342 450.944C584.096 450.982 583.856 451.016 583.621 451.046C583.39 451.072 583.202 451.095 583.058 451.114C582.71 451.16 582.384 451.233 582.081 451.336C581.782 451.434 581.539 451.584 581.354 451.785C581.172 451.982 581.081 452.25 581.081 452.591C581.081 453.057 581.253 453.41 581.598 453.648C581.946 453.883 582.388 454 582.922 454ZM589.165 455V446.273H590.46V447.591H590.551C590.71 447.16 590.998 446.809 591.415 446.54C591.831 446.271 592.301 446.137 592.824 446.137C592.922 446.137 593.045 446.139 593.193 446.143C593.341 446.146 593.453 446.152 593.528 446.16V447.523C593.483 447.512 593.379 447.495 593.216 447.472C593.057 447.446 592.888 447.432 592.71 447.432C592.286 447.432 591.907 447.521 591.574 447.699C591.244 447.874 590.983 448.116 590.79 448.427C590.6 448.733 590.506 449.084 590.506 449.478V455H589.165ZM598.511 455.182C597.67 455.182 596.945 454.997 596.335 454.625C595.729 454.25 595.261 453.728 594.932 453.057C594.606 452.383 594.443 451.599 594.443 450.705C594.443 449.811 594.606 449.023 594.932 448.341C595.261 447.656 595.72 447.122 596.307 446.739C596.898 446.353 597.587 446.16 598.375 446.16C598.83 446.16 599.278 446.235 599.722 446.387C600.165 446.538 600.568 446.785 600.932 447.125C601.295 447.463 601.585 447.91 601.801 448.466C602.017 449.023 602.125 449.709 602.125 450.523V451.091H595.398V449.932H600.761C600.761 449.44 600.663 449 600.466 448.614C600.273 448.228 599.996 447.923 599.636 447.699C599.28 447.476 598.86 447.364 598.375 447.364C597.841 447.364 597.379 447.497 596.989 447.762C596.602 448.023 596.305 448.364 596.097 448.785C595.888 449.205 595.784 449.656 595.784 450.137V450.91C595.784 451.569 595.898 452.127 596.125 452.586C596.356 453.04 596.676 453.387 597.085 453.625C597.494 453.86 597.97 453.978 598.511 453.978C598.864 453.978 599.182 453.929 599.466 453.83C599.754 453.728 600.002 453.576 600.21 453.375C600.419 453.171 600.58 452.917 600.693 452.614L601.989 452.978C601.852 453.417 601.623 453.804 601.301 454.137C600.979 454.466 600.581 454.724 600.108 454.91C599.634 455.091 599.102 455.182 598.511 455.182Z" fill="#2E3B7D"/>
<path d="M1022.91 393.205C1023.39 393.209 1023.86 393.3 1024.34 393.478C1024.82 393.656 1025.25 393.951 1025.65 394.364C1026.04 394.773 1026.36 395.332 1026.6 396.04C1026.84 396.749 1026.95 397.637 1026.95 398.705C1026.95 399.739 1026.86 400.658 1026.66 401.461C1026.47 402.26 1026.19 402.934 1025.82 403.483C1025.45 404.033 1025.01 404.449 1024.49 404.733C1023.97 405.018 1023.38 405.16 1022.73 405.16C1022.08 405.16 1021.49 405.031 1020.98 404.773C1020.48 404.512 1020.06 404.15 1019.73 403.688C1019.41 403.222 1019.2 402.682 1019.11 402.069H1020.5C1020.62 402.603 1020.87 403.044 1021.24 403.393C1021.62 403.737 1022.11 403.91 1022.73 403.91C1023.63 403.91 1024.33 403.518 1024.85 402.733C1025.38 401.949 1025.64 400.841 1025.64 399.41H1025.55C1025.33 399.728 1025.08 400.002 1024.79 400.233C1024.5 400.465 1024.17 400.643 1023.82 400.768C1023.46 400.893 1023.08 400.955 1022.68 400.955C1022.02 400.955 1021.4 400.79 1020.85 400.461C1020.29 400.127 1019.85 399.671 1019.52 399.091C1019.19 398.508 1019.02 397.841 1019.02 397.091C1019.02 396.379 1019.18 395.728 1019.5 395.137C1019.82 394.542 1020.27 394.069 1020.85 393.716C1021.44 393.364 1022.12 393.194 1022.91 393.205ZM1022.91 394.455C1022.43 394.455 1022 394.574 1021.62 394.813C1021.24 395.048 1020.94 395.366 1020.72 395.768C1020.5 396.165 1020.39 396.607 1020.39 397.091C1020.39 397.576 1020.49 398.018 1020.7 398.415C1020.92 398.809 1021.21 399.124 1021.59 399.358C1021.96 399.59 1022.39 399.705 1022.86 399.705C1023.22 399.705 1023.56 399.635 1023.87 399.495C1024.18 399.351 1024.45 399.156 1024.68 398.91C1024.92 398.66 1025.1 398.377 1025.23 398.063C1025.37 397.745 1025.43 397.413 1025.43 397.069C1025.43 396.614 1025.32 396.188 1025.1 395.79C1024.89 395.393 1024.59 395.071 1024.2 394.824C1023.83 394.578 1023.39 394.455 1022.91 394.455ZM1032.98 405.16C1032.13 405.16 1031.4 404.927 1030.8 404.461C1030.19 403.991 1029.73 403.311 1029.42 402.421C1029.1 401.527 1028.94 400.447 1028.94 399.182C1028.94 397.925 1029.1 396.851 1029.42 395.961C1029.74 395.067 1030.2 394.385 1030.8 393.915C1031.41 393.442 1032.14 393.205 1032.98 393.205C1033.83 393.205 1034.56 393.442 1035.16 393.915C1035.77 394.385 1036.23 395.067 1036.55 395.961C1036.87 396.851 1037.03 397.925 1037.03 399.182C1037.03 400.447 1036.87 401.527 1036.55 402.421C1036.23 403.311 1035.77 403.991 1035.17 404.461C1034.57 404.927 1033.84 405.16 1032.98 405.16ZM1032.98 403.91C1033.83 403.91 1034.49 403.5 1034.96 402.682C1035.43 401.864 1035.67 400.697 1035.67 399.182C1035.67 398.175 1035.56 397.317 1035.34 396.608C1035.13 395.9 1034.82 395.36 1034.42 394.989C1034.02 394.618 1033.54 394.432 1032.98 394.432C1032.14 394.432 1031.49 394.847 1031.01 395.677C1030.54 396.502 1030.3 397.671 1030.3 399.182C1030.3 400.19 1030.41 401.046 1030.62 401.75C1030.83 402.455 1031.14 402.991 1031.54 403.358C1031.94 403.726 1032.42 403.91 1032.98 403.91ZM1045.12 402.819V402.205C1045.12 401.781 1045.21 401.393 1045.38 401.04C1045.56 400.684 1045.82 400.4 1046.15 400.188C1046.5 399.972 1046.91 399.864 1047.39 399.864C1047.89 399.864 1048.3 399.972 1048.63 400.188C1048.97 400.4 1049.22 400.684 1049.39 401.04C1049.56 401.393 1049.64 401.781 1049.64 402.205V402.819C1049.64 403.243 1049.56 403.633 1049.38 403.989C1049.21 404.341 1048.96 404.625 1048.62 404.841C1048.29 405.054 1047.88 405.16 1047.39 405.16C1046.9 405.16 1046.49 405.054 1046.15 404.841C1045.81 404.625 1045.56 404.341 1045.38 403.989C1045.21 403.633 1045.12 403.243 1045.12 402.819ZM1046.28 402.205V402.819C1046.28 403.171 1046.36 403.487 1046.53 403.768C1046.7 404.044 1046.98 404.182 1047.39 404.182C1047.79 404.182 1048.07 404.044 1048.23 403.768C1048.4 403.487 1048.48 403.171 1048.48 402.819V402.205C1048.48 401.853 1048.4 401.538 1048.25 401.262C1048.09 400.982 1047.8 400.841 1047.39 400.841C1047 400.841 1046.71 400.982 1046.54 401.262C1046.37 401.538 1046.28 401.853 1046.28 402.205ZM1039.33 396.16V395.546C1039.33 395.122 1039.41 394.733 1039.59 394.381C1039.76 394.025 1040.02 393.741 1040.36 393.529C1040.7 393.313 1041.11 393.205 1041.6 393.205C1042.09 393.205 1042.5 393.313 1042.84 393.529C1043.17 393.741 1043.42 394.025 1043.59 394.381C1043.76 394.733 1043.85 395.122 1043.85 395.546V396.16C1043.85 396.584 1043.76 396.974 1043.59 397.33C1043.42 397.682 1043.16 397.966 1042.83 398.182C1042.49 398.394 1042.08 398.5 1041.6 398.5C1041.11 398.5 1040.69 398.394 1040.35 398.182C1040.02 397.966 1039.76 397.682 1039.59 397.33C1039.41 396.974 1039.33 396.584 1039.33 396.16ZM1040.48 395.546V396.16C1040.48 396.512 1040.57 396.828 1040.73 397.108C1040.9 397.385 1041.19 397.523 1041.6 397.523C1042 397.523 1042.28 397.385 1042.44 397.108C1042.61 396.828 1042.69 396.512 1042.69 396.16V395.546C1042.69 395.194 1042.61 394.879 1042.45 394.603C1042.29 394.322 1042.01 394.182 1041.6 394.182C1041.2 394.182 1040.91 394.322 1040.74 394.603C1040.57 394.879 1040.48 395.194 1040.48 395.546ZM1039.76 405L1047.76 393.364H1049.05L1041.05 405H1039.76Z" fill="#2E3B7D" fill-opacity="0.6"/>
<path d="M352.816 406.832C354.171 405.744 355.232 404.854 356 404.16C356.768 403.456 357.413 402.726 357.936 401.968C358.469 401.2 358.736 400.448 358.736 399.712C358.736 399.019 358.565 398.475 358.224 398.08C357.893 397.675 357.355 397.472 356.608 397.472C355.883 397.472 355.317 397.702 354.912 398.16C354.517 398.608 354.304 399.211 354.272 399.968H352.864C352.907 398.774 353.269 397.851 353.952 397.2C354.635 396.55 355.515 396.224 356.592 396.224C357.691 396.224 358.56 396.528 359.2 397.136C359.851 397.744 360.176 398.582 360.176 399.648C360.176 400.534 359.909 401.398 359.376 402.24C358.853 403.072 358.256 403.808 357.584 404.448C356.912 405.078 356.053 405.814 355.008 406.656H360.512V407.872H352.816V406.832ZM369.571 397.696H363.955V401.344C364.2 401.003 364.563 400.726 365.043 400.512C365.523 400.288 366.04 400.176 366.595 400.176C367.48 400.176 368.2 400.363 368.755 400.736C369.31 401.099 369.704 401.574 369.939 402.16C370.184 402.736 370.307 403.35 370.307 404C370.307 404.768 370.163 405.456 369.875 406.064C369.587 406.672 369.144 407.152 368.547 407.504C367.96 407.856 367.23 408.032 366.355 408.032C365.235 408.032 364.328 407.744 363.635 407.168C362.942 406.592 362.52 405.824 362.371 404.864H363.795C363.934 405.472 364.227 405.947 364.675 406.288C365.123 406.63 365.688 406.8 366.371 406.8C367.214 406.8 367.848 406.55 368.275 406.048C368.702 405.536 368.915 404.864 368.915 404.032C368.915 403.2 368.702 402.56 368.275 402.112C367.848 401.654 367.219 401.424 366.387 401.424C365.822 401.424 365.326 401.563 364.899 401.84C364.483 402.107 364.179 402.475 363.987 402.944H362.611V396.416H369.571V397.696ZM371.922 399.04C371.922 398.315 372.141 397.739 372.578 397.312C373.015 396.875 373.575 396.656 374.258 396.656C374.941 396.656 375.501 396.875 375.938 397.312C376.375 397.739 376.594 398.315 376.594 399.04C376.594 399.776 376.375 400.363 375.938 400.8C375.501 401.227 374.941 401.44 374.258 401.44C373.575 401.44 373.015 401.227 372.578 400.8C372.141 400.363 371.922 399.776 371.922 399.04ZM381.266 396.832L374.786 408H373.346L379.826 396.832H381.266ZM374.258 397.552C373.895 397.552 373.607 397.68 373.394 397.936C373.191 398.182 373.09 398.55 373.09 399.04C373.09 399.531 373.191 399.904 373.394 400.16C373.607 400.416 373.895 400.544 374.258 400.544C374.621 400.544 374.909 400.416 375.122 400.16C375.335 399.894 375.442 399.52 375.442 399.04C375.442 398.55 375.335 398.182 375.122 397.936C374.909 397.68 374.621 397.552 374.258 397.552ZM378.05 405.792C378.05 405.056 378.269 404.475 378.706 404.048C379.143 403.611 379.703 403.392 380.386 403.392C381.069 403.392 381.623 403.611 382.05 404.048C382.487 404.475 382.706 405.056 382.706 405.792C382.706 406.518 382.487 407.099 382.05 407.536C381.623 407.974 381.069 408.192 380.386 408.192C379.703 408.192 379.143 407.979 378.706 407.552C378.269 407.115 378.05 406.528 378.05 405.792ZM380.37 404.304C380.007 404.304 379.719 404.432 379.506 404.688C379.293 404.934 379.186 405.302 379.186 405.792C379.186 406.272 379.293 406.64 379.506 406.896C379.719 407.142 380.007 407.264 380.37 407.264C380.733 407.264 381.021 407.142 381.234 406.896C381.447 406.64 381.554 406.272 381.554 405.792C381.554 405.302 381.447 404.934 381.234 404.688C381.021 404.432 380.733 404.304 380.37 404.304Z" fill="#2E3B7D" fill-opacity="0.6"/>
<path d="M804.112 397.568L799.664 408H798.192L802.704 397.712H796.528V396.464H804.112V397.568ZM813.102 397.696H807.486V401.344C807.732 401.003 808.094 400.726 808.574 400.512C809.054 400.288 809.572 400.176 810.126 400.176C811.012 400.176 811.732 400.363 812.286 400.736C812.841 401.099 813.236 401.574 813.47 402.16C813.716 402.736 813.838 403.35 813.838 404C813.838 404.768 813.694 405.456 813.406 406.064C813.118 406.672 812.676 407.152 812.078 407.504C811.492 407.856 810.761 408.032 809.886 408.032C808.766 408.032 807.86 407.744 807.166 407.168C806.473 406.592 806.052 405.824 805.902 404.864H807.326C807.465 405.472 807.758 405.947 808.206 406.288C808.654 406.63 809.22 406.8 809.902 406.8C810.745 406.8 811.38 406.55 811.806 406.048C812.233 405.536 812.446 404.864 812.446 404.032C812.446 403.2 812.233 402.56 811.806 402.112C811.38 401.654 810.75 401.424 809.918 401.424C809.353 401.424 808.857 401.563 808.43 401.84C808.014 402.107 807.71 402.475 807.518 402.944H806.142V396.416H813.102V397.696ZM815.453 399.04C815.453 398.315 815.672 397.739 816.109 397.312C816.547 396.875 817.107 396.656 817.789 396.656C818.472 396.656 819.032 396.875 819.469 397.312C819.907 397.739 820.125 398.315 820.125 399.04C820.125 399.776 819.907 400.363 819.469 400.8C819.032 401.227 818.472 401.44 817.789 401.44C817.107 401.44 816.547 401.227 816.109 400.8C815.672 400.363 815.453 399.776 815.453 399.04ZM824.797 396.832L818.317 408H816.877L823.357 396.832H824.797ZM817.789 397.552C817.427 397.552 817.139 397.68 816.925 397.936C816.723 398.182 816.621 398.55 816.621 399.04C816.621 399.531 816.723 399.904 816.925 400.16C817.139 400.416 817.427 400.544 817.789 400.544C818.152 400.544 818.44 400.416 818.653 400.16C818.867 399.894 818.973 399.52 818.973 399.04C818.973 398.55 818.867 398.182 818.653 397.936C818.44 397.68 818.152 397.552 817.789 397.552ZM821.581 405.792C821.581 405.056 821.8 404.475 822.237 404.048C822.675 403.611 823.235 403.392 823.917 403.392C824.6 403.392 825.155 403.611 825.581 404.048C826.019 404.475 826.237 405.056 826.237 405.792C826.237 406.518 826.019 407.099 825.581 407.536C825.155 407.974 824.6 408.192 823.917 408.192C823.235 408.192 822.675 407.979 822.237 407.552C821.8 407.115 821.581 406.528 821.581 405.792ZM823.901 404.304C823.539 404.304 823.251 404.432 823.037 404.688C822.824 404.934 822.717 405.302 822.717 405.792C822.717 406.272 822.824 406.64 823.037 406.896C823.251 407.142 823.539 407.264 823.901 407.264C824.264 407.264 824.552 407.142 824.765 406.896C824.979 406.64 825.085 406.272 825.085 405.792C825.085 405.302 824.979 404.934 824.765 404.688C824.552 404.432 824.264 404.304 823.901 404.304Z" fill="#2E3B7D" fill-opacity="0.6"/>
<path d="M582.368 397.696H576.752V401.344C576.997 401.003 577.36 400.726 577.84 400.512C578.32 400.288 578.837 400.176 579.392 400.176C580.277 400.176 580.997 400.363 581.552 400.736C582.107 401.099 582.501 401.574 582.736 402.16C582.981 402.736 583.104 403.35 583.104 404C583.104 404.768 582.96 405.456 582.672 406.064C582.384 406.672 581.941 407.152 581.344 407.504C580.757 407.856 580.027 408.032 579.152 408.032C578.032 408.032 577.125 407.744 576.432 407.168C575.739 406.592 575.317 405.824 575.168 404.864H576.592C576.731 405.472 577.024 405.947 577.472 406.288C577.92 406.63 578.485 406.8 579.168 406.8C580.011 406.8 580.645 406.55 581.072 406.048C581.499 405.536 581.712 404.864 581.712 404.032C581.712 403.2 581.499 402.56 581.072 402.112C580.645 401.654 580.016 401.424 579.184 401.424C578.619 401.424 578.123 401.563 577.696 401.84C577.28 402.107 576.976 402.475 576.784 402.944H575.408V396.416H582.368V397.696ZM585.039 402.096C585.039 400.262 585.338 398.832 585.935 397.808C586.532 396.774 587.578 396.256 589.071 396.256C590.554 396.256 591.594 396.774 592.191 397.808C592.788 398.832 593.087 400.262 593.087 402.096C593.087 403.963 592.788 405.414 592.191 406.448C591.594 407.483 590.554 408 589.071 408C587.578 408 586.532 407.483 585.935 406.448C585.338 405.414 585.039 403.963 585.039 402.096ZM591.647 402.096C591.647 401.168 591.583 400.384 591.455 399.744C591.338 399.094 591.087 398.571 590.703 398.176C590.33 397.782 589.786 397.584 589.071 397.584C588.346 397.584 587.791 397.782 587.407 398.176C587.034 398.571 586.783 399.094 586.655 399.744C586.538 400.384 586.479 401.168 586.479 402.096C586.479 403.056 586.538 403.862 586.655 404.512C586.783 405.163 587.034 405.686 587.407 406.08C587.791 406.475 588.346 406.672 589.071 406.672C589.786 406.672 590.33 406.475 590.703 406.08C591.087 405.686 591.338 405.163 591.455 404.512C591.583 403.862 591.647 403.056 591.647 402.096ZM594.766 399.04C594.766 398.315 594.984 397.739 595.422 397.312C595.859 396.875 596.419 396.656 597.102 396.656C597.784 396.656 598.344 396.875 598.782 397.312C599.219 397.739 599.438 398.315 599.438 399.04C599.438 399.776 599.219 400.363 598.782 400.8C598.344 401.227 597.784 401.44 597.102 401.44C596.419 401.44 595.859 401.227 595.422 400.8C594.984 400.363 594.766 399.776 594.766 399.04ZM604.11 396.832L597.63 408H596.19L602.67 396.832H604.11ZM597.102 397.552C596.739 397.552 596.451 397.68 596.238 397.936C596.035 398.182 595.934 398.55 595.934 399.04C595.934 399.531 596.035 399.904 596.238 400.16C596.451 400.416 596.739 400.544 597.102 400.544C597.464 400.544 597.752 400.416 597.966 400.16C598.179 399.894 598.286 399.52 598.286 399.04C598.286 398.55 598.179 398.182 597.966 397.936C597.752 397.68 597.464 397.552 597.102 397.552ZM600.894 405.792C600.894 405.056 601.112 404.475 601.55 404.048C601.987 403.611 602.547 403.392 603.23 403.392C603.912 403.392 604.467 403.611 604.894 404.048C605.331 404.475 605.55 405.056 605.55 405.792C605.55 406.518 605.331 407.099 604.894 407.536C604.467 407.974 603.912 408.192 603.23 408.192C602.547 408.192 601.987 407.979 601.55 407.552C601.112 407.115 600.894 406.528 600.894 405.792ZM603.214 404.304C602.851 404.304 602.563 404.432 602.35 404.688C602.136 404.934 602.03 405.302 602.03 405.792C602.03 406.272 602.136 406.64 602.35 406.896C602.563 407.142 602.851 407.264 603.214 407.264C603.576 407.264 603.864 407.142 604.078 406.896C604.291 406.64 604.398 406.272 604.398 405.792C604.398 405.302 604.291 404.934 604.078 404.688C603.864 404.432 603.576 404.304 603.214 404.304Z" fill="#2E3B7D" fill-opacity="0.6"/>
<path d="M41.3983 416.096C41.3983 414.261 41.6969 412.832 42.2943 411.808C42.8916 410.773 43.9369 410.256 45.4303 410.256C46.9129 410.256 47.9529 410.773 48.5503 411.808C49.1476 412.832 49.4462 414.261 49.4462 416.096C49.4462 417.963 49.1476 419.413 48.5503 420.448C47.9529 421.483 46.9129 422 45.4303 422C43.9369 422 42.8916 421.483 42.2943 420.448C41.6969 419.413 41.3983 417.963 41.3983 416.096ZM48.0063 416.096C48.0063 415.168 47.9423 414.384 47.8143 413.744C47.6969 413.093 47.4463 412.571 47.0623 412.176C46.6889 411.781 46.1449 411.584 45.4303 411.584C44.7049 411.584 44.1503 411.781 43.7663 412.176C43.3929 412.571 43.1423 413.093 43.0143 413.744C42.8969 414.384 42.8383 415.168 42.8383 416.096C42.8383 417.056 42.8969 417.861 43.0143 418.512C43.1423 419.163 43.3929 419.685 43.7663 420.08C44.1503 420.475 44.7049 420.672 45.4303 420.672C46.1449 420.672 46.6889 420.475 47.0623 420.08C47.4463 419.685 47.6969 419.163 47.8143 418.512C47.9423 417.861 48.0063 417.056 48.0063 416.096ZM51.1251 413.04C51.1251 412.315 51.3438 411.739 51.7811 411.312C52.2185 410.875 52.7785 410.656 53.4611 410.656C54.1438 410.656 54.7038 410.875 55.1411 411.312C55.5785 411.739 55.7971 412.315 55.7971 413.04C55.7971 413.776 55.5785 414.363 55.1411 414.8C54.7038 415.227 54.1438 415.44 53.4611 415.44C52.7785 415.44 52.2185 415.227 51.7811 414.8C51.3438 414.363 51.1251 413.776 51.1251 413.04ZM60.4691 410.832L53.9891 422H52.5491L59.0291 410.832H60.4691ZM53.4611 411.552C53.0985 411.552 52.8105 411.68 52.5971 411.936C52.3945 412.181 52.2931 412.549 52.2931 413.04C52.2931 413.531 52.3945 413.904 52.5971 414.16C52.8105 414.416 53.0985 414.544 53.4611 414.544C53.8238 414.544 54.1118 414.416 54.3251 414.16C54.5385 413.893 54.6451 413.52 54.6451 413.04C54.6451 412.549 54.5385 412.181 54.3251 411.936C54.1118 411.68 53.8238 411.552 53.4611 411.552ZM57.2531 419.792C57.2531 419.056 57.4718 418.475 57.9091 418.048C58.3465 417.611 58.9065 417.392 59.5891 417.392C60.2718 417.392 60.8265 417.611 61.2531 418.048C61.6905 418.475 61.9091 419.056 61.9091 419.792C61.9091 420.517 61.6905 421.099 61.2531 421.536C60.8265 421.973 60.2718 422.192 59.5891 422.192C58.9065 422.192 58.3465 421.979 57.9091 421.552C57.4718 421.115 57.2531 420.528 57.2531 419.792ZM59.5731 418.304C59.2105 418.304 58.9225 418.432 58.7091 418.688C58.4958 418.933 58.3891 419.301 58.3891 419.792C58.3891 420.272 58.4958 420.64 58.7091 420.896C58.9225 421.141 59.2105 421.264 59.5731 421.264C59.9358 421.264 60.2238 421.141 60.4371 420.896C60.6505 420.64 60.7571 420.272 60.7571 419.792C60.7571 419.301 60.6505 418.933 60.4371 418.688C60.2238 418.432 59.9358 418.304 59.5731 418.304Z" fill="#2E3B7D"/>
<path d="M45.5426 330.159C44.7926 330.159 44.1241 330.03 43.5369 329.773C42.9536 329.515 42.4896 329.157 42.1449 328.699C41.804 328.237 41.6184 327.701 41.5881 327.091H43.0199C43.0502 327.466 43.179 327.79 43.4062 328.062C43.6335 328.331 43.9309 328.54 44.2983 328.688C44.6657 328.835 45.0729 328.909 45.5199 328.909C46.0199 328.909 46.4631 328.822 46.8494 328.648C47.2358 328.473 47.5388 328.231 47.7585 327.92C47.9782 327.61 48.0881 327.25 48.0881 326.841C48.0881 326.413 47.982 326.036 47.7699 325.71C47.5578 325.381 47.2472 325.123 46.8381 324.938C46.429 324.752 45.929 324.659 45.3381 324.659H44.4062V323.409H45.3381C45.8002 323.409 46.2055 323.326 46.554 323.159C46.9063 322.992 47.1809 322.758 47.3778 322.455C47.5786 322.152 47.679 321.795 47.679 321.386C47.679 320.992 47.5919 320.65 47.4176 320.358C47.2434 320.066 46.9972 319.839 46.679 319.676C46.3646 319.513 45.9934 319.432 45.5653 319.432C45.1638 319.432 44.785 319.506 44.429 319.653C44.0767 319.797 43.7888 320.008 43.5653 320.284C43.3419 320.557 43.2206 320.886 43.2017 321.273H41.8381C41.8608 320.663 42.0445 320.129 42.3892 319.67C42.7339 319.208 43.1847 318.848 43.7415 318.591C44.3021 318.333 44.9176 318.205 45.5881 318.205C46.3078 318.205 46.9252 318.35 47.4403 318.642C47.9555 318.93 48.3513 319.311 48.6278 319.784C48.9044 320.258 49.0426 320.769 49.0426 321.318C49.0426 321.973 48.8703 322.532 48.5256 322.994C48.1847 323.456 47.7206 323.777 47.1335 323.955V324.045C47.8684 324.167 48.4422 324.479 48.8551 324.983C49.268 325.483 49.4744 326.102 49.4744 326.841C49.4744 327.473 49.3021 328.042 48.9574 328.545C48.6165 329.045 48.1506 329.439 47.5597 329.727C46.9688 330.015 46.2964 330.159 45.5426 330.159ZM57.7301 327.818V327.205C57.7301 326.78 57.8172 326.392 57.9915 326.04C58.1695 325.684 58.4271 325.4 58.7642 325.188C59.1051 324.972 59.518 324.864 60.0028 324.864C60.4953 324.864 60.9081 324.972 61.2415 325.188C61.5748 325.4 61.8267 325.684 61.9972 326.04C62.1676 326.392 62.2528 326.78 62.2528 327.205V327.818C62.2528 328.242 62.1657 328.633 61.9915 328.989C61.821 329.341 61.5672 329.625 61.2301 329.841C60.8968 330.053 60.4877 330.159 60.0028 330.159C59.5104 330.159 59.0956 330.053 58.7585 329.841C58.4214 329.625 58.1657 329.341 57.9915 328.989C57.8172 328.633 57.7301 328.242 57.7301 327.818ZM58.8892 327.205V327.818C58.8892 328.17 58.9725 328.487 59.1392 328.767C59.3059 329.044 59.5938 329.182 60.0028 329.182C60.4006 329.182 60.6809 329.044 60.8438 328.767C61.0104 328.487 61.0938 328.17 61.0938 327.818V327.205C61.0938 326.852 61.0142 326.538 60.8551 326.261C60.696 325.981 60.4119 325.841 60.0028 325.841C59.6051 325.841 59.3191 325.981 59.1449 326.261C58.9744 326.538 58.8892 326.852 58.8892 327.205ZM51.9347 321.159V320.545C51.9347 320.121 52.0218 319.733 52.196 319.381C52.3741 319.025 52.6316 318.741 52.9688 318.528C53.3097 318.312 53.7225 318.205 54.2074 318.205C54.6998 318.205 55.1127 318.312 55.446 318.528C55.7794 318.741 56.0313 319.025 56.2017 319.381C56.3722 319.733 56.4574 320.121 56.4574 320.545V321.159C56.4574 321.583 56.3703 321.973 56.196 322.33C56.0256 322.682 55.7718 322.966 55.4347 323.182C55.1013 323.394 54.6922 323.5 54.2074 323.5C53.715 323.5 53.3002 323.394 52.9631 323.182C52.6259 322.966 52.3703 322.682 52.196 322.33C52.0218 321.973 51.9347 321.583 51.9347 321.159ZM53.0938 320.545V321.159C53.0938 321.511 53.1771 321.828 53.3438 322.108C53.5104 322.384 53.7983 322.523 54.2074 322.523C54.6051 322.523 54.8854 322.384 55.0483 322.108C55.215 321.828 55.2983 321.511 55.2983 321.159V320.545C55.2983 320.193 55.2188 319.879 55.0597 319.602C54.9006 319.322 54.6165 319.182 54.2074 319.182C53.8097 319.182 53.5237 319.322 53.3494 319.602C53.179 319.879 53.0938 320.193 53.0938 320.545ZM52.3665 330L60.3665 318.364H61.6619L53.6619 330H52.3665Z" fill="#2E3B7D"/>
<path d="M47.7916 241.184C47.5569 240 46.8262 239.408 45.5996 239.408C44.6502 239.408 43.9409 239.776 43.4716 240.512C43.0022 241.237 42.7729 242.437 42.7836 244.112C43.0289 243.557 43.4342 243.125 43.9996 242.816C44.5756 242.496 45.2156 242.336 45.9196 242.336C47.0182 242.336 47.8929 242.677 48.5436 243.36C49.2049 244.043 49.5356 244.987 49.5356 246.192C49.5356 246.917 49.3916 247.568 49.1036 248.144C48.8262 248.72 48.3996 249.179 47.8236 249.52C47.2582 249.861 46.5702 250.032 45.7596 250.032C44.6609 250.032 43.8022 249.787 43.1836 249.296C42.5649 248.805 42.1329 248.128 41.8876 247.264C41.6422 246.4 41.5196 245.333 41.5196 244.064C41.5196 240.149 42.8849 238.192 45.6156 238.192C46.6609 238.192 47.4822 238.475 48.0796 239.04C48.6769 239.605 49.0289 240.32 49.1356 241.184H47.7916ZM45.6156 243.568C45.1569 243.568 44.7249 243.664 44.3196 243.856C43.9142 244.037 43.5836 244.32 43.3276 244.704C43.0822 245.077 42.9596 245.536 42.9596 246.08C42.9596 246.891 43.1942 247.552 43.6636 248.064C44.1329 248.565 44.8049 248.816 45.6796 248.816C46.4262 248.816 47.0182 248.587 47.4556 248.128C47.9036 247.659 48.1276 247.029 48.1276 246.24C48.1276 245.408 47.9142 244.757 47.4876 244.288C47.0609 243.808 46.4369 243.568 45.6156 243.568ZM51.1798 241.04C51.1798 240.315 51.3985 239.739 51.8358 239.312C52.2731 238.875 52.8331 238.656 53.5158 238.656C54.1985 238.656 54.7585 238.875 55.1958 239.312C55.6331 239.739 55.8518 240.315 55.8518 241.04C55.8518 241.776 55.6331 242.363 55.1958 242.8C54.7585 243.227 54.1985 243.44 53.5158 243.44C52.8331 243.44 52.2731 243.227 51.8358 242.8C51.3985 242.363 51.1798 241.776 51.1798 241.04ZM60.5238 238.832L54.0438 250H52.6038L59.0838 238.832H60.5238ZM53.5158 239.552C53.1531 239.552 52.8651 239.68 52.6518 239.936C52.4491 240.181 52.3478 240.549 52.3478 241.04C52.3478 241.531 52.4491 241.904 52.6518 242.16C52.8651 242.416 53.1531 242.544 53.5158 242.544C53.8785 242.544 54.1665 242.416 54.3798 242.16C54.5931 241.893 54.6998 241.52 54.6998 241.04C54.6998 240.549 54.5931 240.181 54.3798 239.936C54.1665 239.68 53.8785 239.552 53.5158 239.552ZM57.3078 247.792C57.3078 247.056 57.5265 246.475 57.9638 246.048C58.4011 245.611 58.9611 245.392 59.6438 245.392C60.3265 245.392 60.8811 245.611 61.3078 246.048C61.7451 246.475 61.9638 247.056 61.9638 247.792C61.9638 248.517 61.7451 249.099 61.3078 249.536C60.8811 249.973 60.3265 250.192 59.6438 250.192C58.9611 250.192 58.4011 249.979 57.9638 249.552C57.5265 249.115 57.3078 248.528 57.3078 247.792ZM59.6278 246.304C59.2651 246.304 58.9771 246.432 58.7638 246.688C58.5505 246.933 58.4438 247.301 58.4438 247.792C58.4438 248.272 58.5505 248.64 58.7638 248.896C58.9771 249.141 59.2651 249.264 59.6278 249.264C59.9905 249.264 60.2785 249.141 60.4918 248.896C60.7051 248.64 60.8118 248.272 60.8118 247.792C60.8118 247.301 60.7051 246.933 60.4918 246.688C60.2785 246.432 59.9905 246.304 59.6278 246.304Z" fill="#2E3B7D"/>
<path d="M43.2546 159.896C43.3613 160.504 43.6066 160.973 43.9906 161.304C44.3853 161.635 44.9133 161.8 45.5746 161.8C46.46 161.8 47.1106 161.453 47.5266 160.76C47.9533 160.067 48.156 158.899 48.1346 157.256C47.9106 157.736 47.5373 158.115 47.0146 158.392C46.492 158.659 45.9106 158.792 45.2706 158.792C44.556 158.792 43.916 158.648 43.3506 158.36C42.796 158.061 42.3586 157.629 42.0386 157.064C41.7186 156.499 41.5586 155.816 41.5586 155.016C41.5586 153.875 41.8893 152.957 42.5506 152.264C43.212 151.56 44.1506 151.208 45.3666 151.208C46.86 151.208 47.9053 151.693 48.5026 152.664C49.1106 153.635 49.4146 155.08 49.4146 157C49.4146 158.344 49.292 159.453 49.0466 160.328C48.812 161.203 48.4066 161.869 47.8306 162.328C47.2653 162.787 46.4866 163.016 45.4946 163.016C44.4066 163.016 43.5586 162.723 42.9506 162.136C42.3426 161.549 41.996 160.803 41.9106 159.896H43.2546ZM45.5106 157.56C46.2253 157.56 46.812 157.341 47.2706 156.904C47.7293 156.456 47.9586 155.853 47.9586 155.096C47.9586 154.296 47.7346 153.651 47.2866 153.16C46.8386 152.669 46.2093 152.424 45.3986 152.424C44.652 152.424 44.0546 152.659 43.6066 153.128C43.1693 153.597 42.9506 154.216 42.9506 154.984C42.9506 155.763 43.1693 156.387 43.6066 156.856C44.044 157.325 44.6786 157.56 45.5106 157.56ZM51.1408 154.04C51.1408 153.315 51.3594 152.739 51.7968 152.312C52.2341 151.875 52.7941 151.656 53.4768 151.656C54.1594 151.656 54.7194 151.875 55.1568 152.312C55.5941 152.739 55.8128 153.315 55.8128 154.04C55.8128 154.776 55.5941 155.363 55.1568 155.8C54.7194 156.227 54.1594 156.44 53.4768 156.44C52.7941 156.44 52.2341 156.227 51.7968 155.8C51.3594 155.363 51.1408 154.776 51.1408 154.04ZM60.4848 151.832L54.0048 163H52.5648L59.0448 151.832H60.4848ZM53.4768 152.552C53.1141 152.552 52.8261 152.68 52.6128 152.936C52.4101 153.181 52.3088 153.549 52.3088 154.04C52.3088 154.531 52.4101 154.904 52.6128 155.16C52.8261 155.416 53.1141 155.544 53.4768 155.544C53.8394 155.544 54.1274 155.416 54.3408 155.16C54.5541 154.893 54.6608 154.52 54.6608 154.04C54.6608 153.549 54.5541 153.181 54.3408 152.936C54.1274 152.68 53.8394 152.552 53.4768 152.552ZM57.2688 160.792C57.2688 160.056 57.4874 159.475 57.9248 159.048C58.3621 158.611 58.9221 158.392 59.6048 158.392C60.2874 158.392 60.8421 158.611 61.2688 159.048C61.7061 159.475 61.9248 160.056 61.9248 160.792C61.9248 161.517 61.7061 162.099 61.2688 162.536C60.8421 162.973 60.2874 163.192 59.6048 163.192C58.9221 163.192 58.3621 162.979 57.9248 162.552C57.4874 162.115 57.2688 161.528 57.2688 160.792ZM59.5888 159.304C59.2261 159.304 58.9381 159.432 58.7248 159.688C58.5114 159.933 58.4048 160.301 58.4048 160.792C58.4048 161.272 58.5114 161.64 58.7248 161.896C58.9381 162.141 59.2261 162.264 59.5888 162.264C59.9514 162.264 60.2394 162.141 60.4528 161.896C60.6661 161.64 60.7728 161.272 60.7728 160.792C60.7728 160.301 60.6661 159.933 60.4528 159.688C60.2394 159.432 59.9514 159.304 59.5888 159.304Z" fill="#2E3B7D"/>
<path d="M40.8736 67.76V66.432H43.8816V78H42.4096V67.76H40.8736ZM46.2066 76.832C47.5613 75.744 48.6226 74.8533 49.3906 74.16C50.1586 73.456 50.804 72.7253 51.3266 71.968C51.86 71.2 52.1266 70.448 52.1266 69.712C52.1266 69.0187 51.956 68.4747 51.6146 68.08C51.284 67.6747 50.7453 67.472 49.9986 67.472C49.2733 67.472 48.708 67.7013 48.3026 68.16C47.908 68.608 47.6946 69.2107 47.6626 69.968H46.2546C46.2973 68.7733 46.66 67.8507 47.3426 67.2C48.0253 66.5493 48.9053 66.224 49.9826 66.224C51.0813 66.224 51.9506 66.528 52.5906 67.136C53.2413 67.744 53.5666 68.5813 53.5666 69.648C53.5666 70.5333 53.3 71.3973 52.7666 72.24C52.244 73.072 51.6466 73.808 50.9746 74.448C50.3026 75.0773 49.444 75.8133 48.3986 76.656H53.9026V77.872H46.2066V76.832ZM55.2658 69.04C55.2658 68.3147 55.4844 67.7387 55.9218 67.312C56.3591 66.8747 56.9191 66.656 57.6018 66.656C58.2844 66.656 58.8444 66.8747 59.2818 67.312C59.7191 67.7387 59.9378 68.3147 59.9378 69.04C59.9378 69.776 59.7191 70.3627 59.2818 70.8C58.8444 71.2267 58.2844 71.44 57.6018 71.44C56.9191 71.44 56.3591 71.2267 55.9218 70.8C55.4844 70.3627 55.2658 69.776 55.2658 69.04ZM64.6098 66.832L58.1298 78H56.6898L63.1698 66.832H64.6098ZM57.6018 67.552C57.2391 67.552 56.9511 67.68 56.7378 67.936C56.5351 68.1813 56.4338 68.5493 56.4338 69.04C56.4338 69.5307 56.5351 69.904 56.7378 70.16C56.9511 70.416 57.2391 70.544 57.6018 70.544C57.9644 70.544 58.2524 70.416 58.4658 70.16C58.6791 69.8933 58.7858 69.52 58.7858 69.04C58.7858 68.5493 58.6791 68.1813 58.4658 67.936C58.2524 67.68 57.9644 67.552 57.6018 67.552ZM61.3938 75.792C61.3938 75.056 61.6124 74.4747 62.0498 74.048C62.4871 73.6107 63.0471 73.392 63.7298 73.392C64.4124 73.392 64.9671 73.6107 65.3938 74.048C65.8311 74.4747 66.0498 75.056 66.0498 75.792C66.0498 76.5173 65.8311 77.0987 65.3938 77.536C64.9671 77.9733 64.4124 78.192 63.7298 78.192C63.0471 78.192 62.4871 77.9787 62.0498 77.552C61.6124 77.1147 61.3938 76.528 61.3938 75.792ZM63.7138 74.304C63.3511 74.304 63.0631 74.432 62.8498 74.688C62.6364 74.9333 62.5298 75.3013 62.5298 75.792C62.5298 76.272 62.6364 76.64 62.8498 76.896C63.0631 77.1413 63.3511 77.264 63.7138 77.264C64.0764 77.264 64.3644 77.1413 64.5778 76.896C64.7911 76.64 64.8978 76.272 64.8978 75.792C64.8978 75.3013 64.7911 74.9333 64.5778 74.688C64.3644 74.432 64.0764 74.304 63.7138 74.304Z" fill="#2E3B7D"/>
<path d="M4 165.409H15.6364V169.34C15.6364 170.253 15.4716 171 15.142 171.579C14.8163 172.162 14.375 172.594 13.8182 172.875C13.2614 173.155 12.6402 173.295 11.9545 173.295C11.2689 173.295 10.6458 173.155 10.0852 172.875C9.52462 172.598 9.07765 172.17 8.74432 171.59C8.41477 171.011 8.25 170.268 8.25 169.363L8.25 166.545H9.5L9.5 169.318C9.5 169.943 9.60795 170.445 9.82386 170.823C10.0398 171.202 10.3314 171.477 10.6989 171.647C11.0701 171.821 11.4886 171.909 11.9545 171.909C12.4205 171.909 12.8371 171.821 13.2045 171.647C13.572 171.477 13.8598 171.2 14.0682 170.818C14.2803 170.435 14.3864 169.928 14.3864 169.295V166.818H4V165.409ZM3.81818 178.948C3.81818 178.107 4.00379 177.382 4.375 176.772C4.75 176.166 5.27273 175.698 5.94318 175.369C6.61742 175.043 7.40152 174.88 8.29545 174.88C9.18939 174.88 9.97727 175.043 10.6591 175.369C11.3447 175.698 11.8788 176.157 12.2614 176.744C12.6477 177.335 12.8409 178.024 12.8409 178.812C12.8409 179.267 12.7652 179.715 12.6136 180.159C12.4621 180.602 12.2159 181.005 11.875 181.369C11.5379 181.732 11.0909 182.022 10.5341 182.238C9.97727 182.454 9.29167 182.562 8.47727 182.562H7.90909L7.90909 175.835H9.06818L9.06818 181.198C9.56061 181.198 10 181.1 10.3864 180.903C10.7727 180.71 11.0777 180.433 11.3011 180.073C11.5246 179.717 11.6364 179.297 11.6364 178.812C11.6364 178.278 11.5038 177.816 11.2386 177.426C10.9773 177.039 10.6364 176.742 10.2159 176.534C9.79545 176.325 9.3447 176.221 8.86364 176.221H8.09091C7.43182 176.221 6.87311 176.335 6.41477 176.562C5.96023 176.793 5.61364 177.113 5.375 177.522C5.14015 177.931 5.02273 178.407 5.02273 178.948C5.02273 179.301 5.07197 179.619 5.17045 179.903C5.27273 180.191 5.42424 180.439 5.625 180.647C5.82955 180.856 6.08333 181.017 6.38636 181.13L6.02273 182.426C5.58333 182.289 5.19697 182.06 4.86364 181.738C4.53409 181.416 4.27652 181.018 4.09091 180.545C3.90909 180.071 3.81818 179.539 3.81818 178.948ZM4 184.602H12.7273V185.897H11.4091V185.988C11.8409 186.147 12.1913 186.435 12.4602 186.852C12.7292 187.268 12.8636 187.738 12.8636 188.261C12.8636 188.359 12.8617 188.482 12.858 188.63C12.8542 188.778 12.8485 188.89 12.8409 188.965H11.4773C11.4886 188.92 11.5057 188.816 11.5284 188.653C11.5549 188.494 11.5682 188.325 11.5682 188.147C11.5682 187.723 11.4792 187.344 11.3011 187.011C11.1269 186.681 10.8845 186.42 10.5739 186.227C10.267 186.037 9.91667 185.943 9.52273 185.943H4V184.602ZM12.7273 194.988H11.5909L11.5909 190.284H12.7273L12.7273 194.988ZM4 191.693H13.9318C14.4318 191.693 14.8485 191.81 15.1818 192.045C15.5152 192.28 15.7652 192.585 15.9318 192.96C16.0985 193.335 16.1818 193.731 16.1818 194.147C16.1818 194.477 16.1553 194.746 16.1023 194.954C16.0492 195.162 16 195.318 15.9545 195.42L14.7955 195.034C14.8182 194.965 14.8466 194.871 14.8807 194.75C14.9148 194.632 14.9318 194.477 14.9318 194.284C14.9318 193.84 14.8201 193.52 14.5966 193.323C14.3731 193.13 14.0455 193.034 13.6136 193.034H4V191.693ZM3.81818 200.053C3.81818 199.266 4.00568 198.574 4.38068 197.98C4.75568 197.389 5.2803 196.927 5.95455 196.593C6.62879 196.264 7.41667 196.099 8.31818 196.099C9.22727 196.099 10.0208 196.264 10.6989 196.593C11.3769 196.927 11.9034 197.389 12.2784 197.98C12.6534 198.574 12.8409 199.266 12.8409 200.053C12.8409 200.841 12.6534 201.531 12.2784 202.122C11.9034 202.716 11.3769 203.178 10.6989 203.508C10.0208 203.841 9.22727 204.008 8.31818 204.008C7.41667 204.008 6.62879 203.841 5.95455 203.508C5.2803 203.178 4.75568 202.716 4.38068 202.122C4.00568 201.531 3.81818 200.841 3.81818 200.053ZM5.02273 200.053C5.02273 200.652 5.17614 201.144 5.48295 201.531C5.78977 201.917 6.19318 202.203 6.69318 202.389C7.19318 202.574 7.73485 202.667 8.31818 202.667C8.90152 202.667 9.44508 202.574 9.94886 202.389C10.4527 202.203 10.8598 201.917 11.1705 201.531C11.4811 201.144 11.6364 200.652 11.6364 200.053C11.6364 199.455 11.4811 198.963 11.1705 198.576C10.8598 198.19 10.4527 197.904 9.94886 197.718C9.44508 197.533 8.90152 197.44 8.31818 197.44C7.73485 197.44 7.19318 197.533 6.69318 197.718C6.19318 197.904 5.78977 198.19 5.48295 198.576C5.17614 198.963 5.02273 199.455 5.02273 200.053ZM4 206.055H12.7273V207.35H11.4091V207.441C11.8409 207.6 12.1913 207.888 12.4602 208.305C12.7292 208.722 12.8636 209.191 12.8636 209.714C12.8636 209.812 12.8617 209.936 12.858 210.083C12.8542 210.231 12.8485 210.343 12.8409 210.419H11.4773C11.4886 210.373 11.5057 210.269 11.5284 210.106C11.5549 209.947 11.5682 209.778 11.5682 209.6C11.5682 209.176 11.4792 208.797 11.3011 208.464C11.1269 208.134 10.8845 207.873 10.5739 207.68C10.267 207.491 9.91667 207.396 9.52273 207.396H4V206.055ZM4 212.008H12.7273V213.303H11.3636V213.417C11.8295 213.599 12.1913 213.893 12.4489 214.298C12.7102 214.703 12.8409 215.19 12.8409 215.758C12.8409 216.334 12.7102 216.813 12.4489 217.196C12.1913 217.582 11.8295 217.883 11.3636 218.099V218.19C11.8144 218.413 12.1723 218.749 12.4375 219.196C12.7064 219.643 12.8409 220.178 12.8409 220.803C12.8409 221.584 12.5966 222.222 12.108 222.718C11.6231 223.214 10.8674 223.463 9.84091 223.463H4V222.122H9.84091C10.4848 222.122 10.9451 221.946 11.2216 221.593C11.4981 221.241 11.6364 220.826 11.6364 220.349C11.6364 219.735 11.4508 219.26 11.0795 218.923C10.7121 218.586 10.2462 218.417 9.68182 218.417H4L4 217.053H9.97727C10.4735 217.053 10.8731 216.893 11.1761 216.571C11.483 216.249 11.6364 215.834 11.6364 215.326C11.6364 214.978 11.5436 214.652 11.358 214.349C11.1723 214.05 10.9148 213.807 10.5852 213.622C10.2595 213.44 9.88258 213.349 9.45455 213.349H4V212.008ZM3.79545 228.482C3.79545 227.929 3.89962 227.428 4.10795 226.977C4.32008 226.526 4.625 226.168 5.02273 225.903C5.42424 225.638 5.90909 225.505 6.47727 225.505C6.97727 225.505 7.38258 225.604 7.69318 225.801C8.00758 225.998 8.25379 226.261 8.43182 226.59C8.60985 226.92 8.74242 227.284 8.82955 227.681C8.92045 228.083 8.99242 228.486 9.04545 228.892C9.11364 229.422 9.16477 229.852 9.19886 230.181C9.23674 230.515 9.29924 230.757 9.38636 230.909C9.47348 231.064 9.625 231.142 9.84091 231.142H9.88636C10.447 231.142 10.8826 230.988 11.1932 230.681C11.5038 230.378 11.6591 229.918 11.6591 229.301C11.6591 228.66 11.5189 228.159 11.2386 227.795C10.9583 227.431 10.6591 227.176 10.3409 227.028L10.7955 225.755C11.3258 225.982 11.7386 226.285 12.0341 226.664C12.3333 227.047 12.5417 227.464 12.6591 227.914C12.7803 228.369 12.8409 228.816 12.8409 229.255C12.8409 229.535 12.8068 229.857 12.7386 230.221C12.6742 230.589 12.5398 230.943 12.3352 231.284C12.1307 231.628 11.822 231.914 11.4091 232.142C10.9962 232.369 10.4432 232.482 9.75 232.482H4V231.142H5.18182V231.073C4.99242 230.982 4.78977 230.831 4.57386 230.619C4.35795 230.407 4.17424 230.125 4.02273 229.772C3.87121 229.42 3.79545 228.99 3.79545 228.482ZM5 228.687C5 229.217 5.10417 229.664 5.3125 230.028C5.52083 230.395 5.78977 230.672 6.11932 230.857C6.44886 231.047 6.79545 231.142 7.15909 231.142H8.38636C8.31818 231.085 8.25568 230.96 8.19886 230.767C8.14583 230.577 8.09849 230.357 8.05682 230.107C8.01894 229.861 7.98485 229.621 7.95455 229.386C7.92803 229.155 7.9053 228.967 7.88636 228.823C7.84091 228.475 7.76705 228.149 7.66477 227.846C7.56629 227.547 7.41667 227.304 7.21591 227.119C7.01894 226.937 6.75 226.846 6.40909 226.846C5.94318 226.846 5.59091 227.018 5.35227 227.363C5.11742 227.712 5 228.153 5 228.687ZM9.25 236.271H4V234.93H12.7273V236.225H11.3636V236.339C11.8068 236.544 12.1629 236.854 12.4318 237.271C12.7045 237.687 12.8409 238.225 12.8409 238.884C12.8409 239.475 12.7197 239.992 12.4773 240.436C12.2386 240.879 11.875 241.223 11.3864 241.47C10.9015 241.716 10.2879 241.839 9.54545 241.839H4V240.498H9.45455C10.1402 240.498 10.6742 240.32 11.0568 239.964C11.4432 239.608 11.6364 239.119 11.6364 238.498C11.6364 238.07 11.5436 237.687 11.358 237.35C11.1723 237.017 10.9015 236.754 10.5455 236.561C10.1894 236.367 9.75758 236.271 9.25 236.271ZM3.81818 247.835C3.81818 247.017 4.01136 246.312 4.39773 245.721C4.78409 245.13 5.31629 244.676 5.99432 244.357C6.67235 244.039 7.44697 243.88 8.31818 243.88C9.20455 243.88 9.98674 244.043 10.6648 244.369C11.3466 244.698 11.8788 245.157 12.2614 245.744C12.6477 246.335 12.8409 247.024 12.8409 247.812C12.8409 248.426 12.7273 248.979 12.5 249.471C12.2727 249.964 11.9545 250.367 11.5455 250.681C11.1364 250.996 10.6591 251.191 10.1136 251.267V249.926C10.5114 249.823 10.8636 249.596 11.1705 249.244C11.4811 248.895 11.6364 248.426 11.6364 247.835C11.6364 247.312 11.5 246.854 11.2273 246.46C10.9583 246.07 10.5777 245.765 10.0852 245.545C9.59659 245.329 9.02273 245.221 8.36364 245.221C7.68939 245.221 7.10227 245.327 6.60227 245.539C6.10227 245.755 5.71402 246.058 5.4375 246.448C5.16098 246.842 5.02273 247.304 5.02273 247.835C5.02273 248.183 5.08333 248.5 5.20455 248.784C5.32576 249.068 5.5 249.308 5.72727 249.505C5.95455 249.702 6.22727 249.842 6.54545 249.926V251.267C6.0303 251.191 5.56629 251.003 5.15341 250.704C4.74432 250.409 4.41856 250.017 4.17614 249.528C3.9375 249.043 3.81818 248.479 3.81818 247.835ZM3.81818 256.886C3.81818 256.045 4.00379 255.32 4.375 254.71C4.75 254.104 5.27273 253.636 5.94318 253.306C6.61742 252.981 7.40152 252.818 8.29545 252.818C9.18939 252.818 9.97727 252.981 10.6591 253.306C11.3447 253.636 11.8788 254.094 12.2614 254.681C12.6477 255.272 12.8409 255.962 12.8409 256.75C12.8409 257.204 12.7652 257.653 12.6136 258.096C12.4621 258.539 12.2159 258.943 11.875 259.306C11.5379 259.67 11.0909 259.96 10.5341 260.176C9.97727 260.392 9.29167 260.5 8.47727 260.5H7.90909L7.90909 253.772H9.06818L9.06818 259.136C9.56061 259.136 10 259.037 10.3864 258.84C10.7727 258.647 11.0777 258.371 11.3011 258.011C11.5246 257.655 11.6364 257.234 11.6364 256.75C11.6364 256.215 11.5038 255.753 11.2386 255.363C10.9773 254.977 10.6364 254.679 10.2159 254.471C9.79545 254.263 9.3447 254.159 8.86364 254.159H8.09091C7.43182 254.159 6.87311 254.272 6.41477 254.5C5.96023 254.731 5.61364 255.051 5.375 255.46C5.14015 255.869 5.02273 256.344 5.02273 256.886C5.02273 257.238 5.07197 257.556 5.17045 257.84C5.27273 258.128 5.42424 258.376 5.625 258.585C5.82955 258.793 6.08333 258.954 6.38636 259.068L6.02273 260.363C5.58333 260.227 5.19697 259.998 4.86364 259.676C4.53409 259.354 4.27652 258.956 4.09091 258.482C3.90909 258.009 3.81818 257.477 3.81818 256.886Z" fill="#2E3B7D"/>
<line x1="566.5" y1="410" x2="566.5" y2="237" stroke="black" stroke-opacity="0.15"/>
<line x1="344.5" y1="410" x2="344.5" y2="318" stroke="black" stroke-opacity="0.15"/>
<line x1="788.5" y1="410" x2="788.5" y2="155" stroke="black" stroke-opacity="0.15"/>
<line x1="1010.5" y1="410" x2="1010.5" y2="70.0005" stroke="black" stroke-opacity="0.15"/>
<circle cx="344.325" cy="315.326" r="7.32542" fill="#D9D9D9"/>
<circle cx="566.325" cy="232.326" r="7.32542" fill="#D9D9D9"/>
<circle cx="788.325" cy="148.325" r="7.32542" fill="#D9D9D9"/>
<circle cx="1010.33" cy="64.3254" r="7.32542" fill="#D9D9D9"/>
<defs>
<linearGradient id="paint0_linear_134_4862" x1="755" y1="121.308" x2="833.766" y2="317.136" gradientUnits="userSpaceOnUse">
<stop stop-color="#6DD3FF" stop-opacity="0.309804"/>
<stop offset="1" stop-color="#D0D7FF" stop-opacity="0"/>
</linearGradient>
<linearGradient id="paint1_linear_134_4862" x1="598.963" y1="219.769" x2="599.315" y2="220.705" gradientUnits="userSpaceOnUse">
<stop stop-color="#5ECED0"/>
<stop offset="1" stop-color="#358CB0"/>
</linearGradient>
</defs>
</svg>
