<svg width="33" height="29" viewBox="0 0 33 29" fill="none" xmlns="http://www.w3.org/2000/svg">
<path fill-rule="evenodd" clip-rule="evenodd" d="M11.6445 28.8275C5.87547 28.8275 0.553522 25.3576 4.00566e-05 20.472C4.00566e-05 16.2251 3.03141 13 7.66364 13C12.2959 13 17.0196 17.9601 16.8174 23.8035C17.2857 26.1239 16.809 27.0635 15.8914 27.9866C14.9148 28.969 13.8797 29.1361 11.6445 28.8275ZM13.3789 22.5306C13.0646 21.285 12.7459 20.4373 12.3333 19.7126C11.9204 18.9873 11.3934 18.3493 10.6147 17.5408C10.3292 17.2444 10.3381 16.7728 10.6345 16.4873C10.9309 16.2019 11.4025 16.2107 11.688 16.5071C12.5022 17.3525 13.1264 18.0936 13.6284 18.9754C14.1308 19.858 14.4906 20.8455 14.8238 22.166C14.9245 22.565 14.6826 22.9701 14.2836 23.0708C13.8847 23.1714 13.4796 22.9296 13.3789 22.5306Z" fill="#6CB6FF"/>
<path fill-rule="evenodd" clip-rule="evenodd" d="M27.4869 17.4345C21.7529 18.0682 16.082 15.2038 14.9952 10.4086C14.5288 6.1874 17.1875 2.64885 21.7917 2.14006C26.3959 1.63126 31.6359 6.04246 32.0768 11.8728C32.7971 14.1277 32.4264 15.114 31.6158 16.1323C30.753 17.216 29.7425 17.4958 27.4869 17.4345ZM28.5632 10.7339C28.0545 9.55421 27.6048 8.76804 27.0822 8.11834C26.559 7.46798 25.9371 6.92209 25.0396 6.24792C24.7106 6.00077 24.6442 5.53371 24.8914 5.2047C25.1385 4.8757 25.6056 4.80933 25.9346 5.05648C26.873 5.76142 27.6073 6.3937 28.2433 7.18431C28.8798 7.97557 29.3923 8.89318 29.9315 10.1439C30.0944 10.5217 29.9202 10.9601 29.5423 11.123C29.1645 11.286 28.7261 11.1117 28.5632 10.7339Z" fill="#6CB6FF"/>
</svg>
