<svg width="38" height="32" viewBox="0 0 38 32" fill="none" xmlns="http://www.w3.org/2000/svg">
<path fill-rule="evenodd" clip-rule="evenodd" d="M9.14921 27.3211C4.67027 22.8459 3.23011 16.0236 6.59025 11.8012C9.8847 8.50395 14.74 8.35156 18.3364 11.9449C21.9328 15.5382 21.7525 23.0535 17.0626 27.4334C15.6262 29.5982 14.5272 29.9579 13.0987 29.9627C11.5785 29.9679 10.6451 29.2947 9.14921 27.3211ZM15.3846 24.1784C16.1069 22.9675 16.517 22.0621 16.7589 21.1795C17.001 20.296 17.0866 19.3919 17.1093 18.1601C17.1175 17.7086 17.4903 17.3493 17.9419 17.3576C18.3934 17.3658 18.7527 17.7386 18.7444 18.1902C18.7208 19.4781 18.6305 20.5377 18.3361 21.6117C18.0416 22.6866 17.5549 23.7324 16.7892 25.0162C16.5579 25.404 16.0559 25.5309 15.668 25.2996C15.2802 25.0682 15.1533 24.5663 15.3846 24.1784Z" fill="#6CB6FF"/>
<path fill-rule="evenodd" clip-rule="evenodd" d="M26.3521 27.5429C23.2425 24.436 22.2427 19.6995 24.5755 16.7681C26.8627 14.479 30.2335 14.3732 32.7303 16.8679C35.2271 19.3626 35.102 24.5801 31.846 27.6209C30.8488 29.1238 30.0858 29.3735 29.094 29.3768C28.0386 29.3804 27.3906 28.913 26.3521 27.5429ZM30.6787 25.0829C31.1801 24.2423 31.4648 23.6136 31.6327 23.0009C31.8008 22.3875 31.8603 21.7598 31.876 20.9047C31.8818 20.5912 32.1405 20.3417 32.454 20.3475C32.7675 20.3532 33.017 20.612 33.0112 20.9255C32.9948 21.8197 32.9321 22.5553 32.7278 23.301C32.5233 24.0472 32.1854 24.7733 31.6538 25.6645C31.4932 25.9338 31.1447 26.0219 30.8754 25.8613C30.6061 25.7007 30.5181 25.3522 30.6787 25.0829Z" fill="#6CB6FF"/>
<path fill-rule="evenodd" clip-rule="evenodd" d="M21.3381 10.2106C19.4221 8.00197 18.9831 4.81207 20.6697 2.97762C22.2956 1.56716 24.5371 1.65662 26.0755 3.43007C27.614 5.20351 27.2838 8.6593 24.9795 10.5226C24.2467 11.4725 23.7286 11.602 23.0705 11.5573C22.37 11.5097 21.9623 11.1689 21.3381 10.2106ZM24.4425 8.72931C24.7879 8.1774 24.9862 7.76342 25.1066 7.35832C25.2271 6.95281 25.2756 6.53621 25.2982 5.96776C25.3065 5.75937 25.4822 5.59716 25.6906 5.60545C25.899 5.61374 26.0612 5.78939 26.0529 5.99778C26.0292 6.59219 25.9771 7.0805 25.8306 7.57346C25.684 8.06681 25.4489 8.54484 25.0827 9.12998C24.9721 9.30677 24.7391 9.36039 24.5623 9.24975C24.3855 9.1391 24.3319 8.9061 24.4425 8.72931Z" fill="#6CB6FF"/>
</svg>
