<svg width="26" height="23" viewBox="0 0 26 23" fill="none" xmlns="http://www.w3.org/2000/svg">
<path d="M12.714 16.9829C11.7138 16.9829 10.7545 16.5821 10.0472 15.8687C9.33992 15.1553 8.94258 14.1877 8.94258 13.1789C8.94258 11.7587 9.70943 10.516 10.8283 9.86936L23.0351 2.74315L16.0831 14.8907C15.4546 16.1333 14.1849 16.9829 12.714 16.9829ZM12.714 0.498779C14.9894 0.498779 17.114 1.13278 18.962 2.17255L16.322 3.70684C15.2283 3.27572 13.9711 3.0348 12.714 3.0348C10.0467 3.0348 7.48861 4.10354 5.60253 6.00592C3.71645 7.9083 2.65686 10.4885 2.65686 13.1789C2.65686 15.9812 3.77572 18.5172 5.59858 20.3431H5.61115C6.10143 20.8376 6.10143 21.6365 5.61115 22.131C5.12086 22.6255 4.31629 22.6255 3.82601 22.1437C1.55058 19.8486 0.142578 16.6786 0.142578 13.1789C0.142578 9.81589 1.46706 6.59066 3.82466 4.21269C6.18226 1.83471 9.37986 0.498779 12.714 0.498779ZM25.2854 13.1789C25.2854 16.6786 23.8774 19.8486 21.602 22.1437C21.1117 22.6255 20.3197 22.6255 19.8294 22.131C19.3391 21.6365 19.3391 20.8376 19.8294 20.3431C21.6523 18.5045 22.7711 15.9812 22.7711 13.1789C22.7711 11.9109 22.5323 10.6428 22.0923 9.50164L23.6134 6.83882C24.6569 8.74083 25.2854 10.8711 25.2854 13.1789Z" fill="white"/>
</svg>
