<svg width="32" height="32" viewBox="0 0 32 32" fill="none" xmlns="http://www.w3.org/2000/svg">
<circle cx="16" cy="16" r="15.5" fill="#2E3B7D" stroke="#2E3B7D"/>
<path d="M18.5034 16.4H18.0034V16.9V24.5H14.7157V16.9V16.4H14.2157H11.5V13.8H14.2157H14.7157V13.3V11.2302C14.7157 9.97803 15.1278 9.06849 15.8195 8.46476C16.5209 7.85244 17.573 7.5 18.9482 7.5C19.6355 7.5 20.3197 7.52159 20.8306 7.54789C20.9767 7.55541 21.1075 7.56326 21.2192 7.57099V9.2H20.1156C19.2285 9.2 18.6158 9.46427 18.2858 10.0205C18.0032 10.4969 18.0033 11.0938 18.0034 11.5228C18.0034 11.5308 18.0034 11.5387 18.0034 11.5466V13.3V13.8H18.5034H21.4272L21.0726 16.4H18.5034Z" fill="white" stroke="white"/>
</svg>
