<svg width="31" height="32" viewBox="0 0 31 32" fill="none" xmlns="http://www.w3.org/2000/svg">
<circle cx="16" cy="16" r="16" fill="#2E3B7D"/>
<path fill-rule="evenodd" clip-rule="evenodd" d="M24 25H20.8V18.7009C20.8 16.9729 20.1224 16.0088 18.9072 16.0088C17.5848 16.0088 16.8 17.0134 16.8 18.7009V25H13.6V13.3H16.8V14.6157C16.8 14.6157 17.804 12.6338 20.0664 12.6338C22.3296 12.6338 24 14.1875 24 17.4023V25ZM9.9536 11.4288C8.8744 11.4288 8 10.4371 8 9.21396C8 7.99176 8.8744 7 9.9536 7C11.032 7 11.9064 7.99176 11.9064 9.21396C11.9072 10.4371 11.032 11.4288 9.9536 11.4288ZM8 25H12V13.3H8L8 25Z" fill="white"/>
</svg>
