<svg width="161" height="56" viewBox="0 0 161 56" fill="none" xmlns="http://www.w3.org/2000/svg"><g id="624f10558a1834487990b2ec_Rise_Logo_Primary 1 1"><path id="Vector" d="M28.4736 2.02069C14.0595 2.02069 2.36914 13.6506 2.36914 27.9955C2.36914 42.3405 14.0551 53.9749 28.4736 53.9749C42.8874 53.9749 54.5779 42.345 54.5779 27.9955C54.5779 13.6506 42.8919 2.02069 28.4736 2.02069ZM35.8616 40.9429L35.8079 24.7687L19.5335 40.9474L11.5596 40.9429L31.9485 20.6652H24.4932C22.19 20.6652 20.3162 22.5299 20.3162 24.8222C20.3162 25.7746 20.6426 26.6514 21.1883 27.3546L17.1901 31.3425C15.6293 29.6112 14.6767 27.3279 14.6767 24.8266C14.6767 19.4411 19.0774 15.057 24.4932 15.057H41.4966V40.9474L35.8616 40.9429Z" fill="#5E59EC"/><path id="Vector_2" d="M75.0824 44.6905H67.1934V18.3106H75.0824V24.6931C76.4465 19.7793 79.8498 17.7454 82.5734 17.7454C84.4472 17.7454 85.8648 18.0837 87.1126 18.7068L85.6949 25.7657C84.2773 25.0893 82.9133 24.9735 81.6656 24.9735C77.1262 24.9735 75.0824 28.5341 75.0824 35.4819V44.6905Z" fill="#A6CBF7"/><path id="Vector_3" d="M95.1141 3.96136C97.7795 3.96136 99.9396 5.93752 99.9396 8.53679C99.9396 11.1361 97.784 13.1701 95.1141 13.1701C92.4486 13.1701 90.1768 11.1361 90.1768 8.53679C90.1768 5.93752 92.4486 3.96136 95.1141 3.96136ZM99.0318 44.6906H91.2008V18.3107H99.0318V44.6906Z" fill="#A6CBF7"/><path id="Vector_4" d="M113.164 33.8439C105.216 31.6987 105.163 27.6885 105.216 25.2584C105.275 21.3594 109.984 17.7454 115.547 17.7454C120.824 17.7454 126.388 20.0598 126.446 26.5H119.009C118.951 24.5239 117.251 24.1857 115.999 24.1857C114.295 24.1857 113.159 24.978 113.217 26.1618C113.275 26.9541 113.955 27.7418 115.543 28.138L120.028 29.3264C126.442 31.0755 127.238 35.3126 127.238 37.0084C127.238 42.5986 121.334 45.2558 115.771 45.2558C110.377 45.2558 104.76 42.0378 104.702 36.1628H112.081C112.139 37.6894 113.839 39.2116 115.999 39.2116C117.757 39.1538 119.232 38.3659 119.232 37.0084C119.232 35.8779 118.553 35.2593 116.621 34.7474L113.164 33.8439Z" fill="#A6CBF7"/><path id="Vector_5" d="M157.149 39.8881C154.484 43.8404 149.541 45.2558 145.06 45.2558C137.453 45.2558 131.21 39.719 131.21 31.4182C131.21 23.113 137.453 17.7498 145.06 17.7498C152.61 17.7498 158.625 23.34 158.625 31.6452C158.625 32.3218 158.567 33.3943 158.513 34.0753H139.103C139.501 37.1242 142.851 38.4817 145.629 38.4817C147.784 38.4817 150.114 37.6894 151.419 35.9981L157.149 39.8881ZM150.678 29.1572C150.28 25.9393 147.328 24.6397 145.114 24.6397C142.901 24.6397 139.891 25.828 139.211 29.1572H150.678Z" fill="#A6CBF7"/></g></svg>