<svg width="32" height="32" viewBox="0 0 32 32" fill="none" xmlns="http://www.w3.org/2000/svg">
<circle cx="16" cy="16" r="16" fill="#2E3B7D"/>
<path d="M24.807 11.1379L22.3226 13.6516C21.8266 19.4751 16.9727 24 11.1629 24C9.96666 24 8.98079 23.8081 8.23264 23.4296C7.62887 23.1242 7.38154 22.7963 7.32017 22.7031C7.26511 22.6195 7.22942 22.5245 7.21577 22.425C7.20211 22.3255 7.21084 22.2242 7.24131 22.1287C7.27178 22.0331 7.32319 21.9457 7.39172 21.873C7.46024 21.8004 7.5441 21.7443 7.63703 21.7091C7.65823 21.701 9.60125 20.9459 10.857 19.5083C10.0759 18.9456 9.38846 18.2604 8.82048 17.4787C7.69145 15.9284 6.49734 13.2361 7.22011 9.21387C7.24162 9.09417 7.2951 8.98271 7.37474 8.89156C7.45439 8.80041 7.55717 8.73305 7.67195 8.69677C7.78673 8.6605 7.90913 8.6567 8.02589 8.68577C8.14265 8.71485 8.24932 8.7757 8.33435 8.86174C8.36338 8.89103 11.1052 11.626 14.457 12.5095L14.4575 11.9995C14.4646 10.9321 14.8903 9.91124 15.641 9.16128C16.3917 8.41132 17.4061 7.99365 18.461 8.00007C19.1464 8.00968 19.8175 8.19897 20.409 8.54946C21.0004 8.89995 21.4919 9.39966 21.8354 9.99977L24.3411 9.99981C24.4714 9.99981 24.5988 10.0389 24.7071 10.1122C24.8155 10.1854 24.9 10.2895 24.9498 10.4114C24.9997 10.5332 25.0128 10.6672 24.9873 10.7965C24.9619 10.9259 24.8992 11.0447 24.807 11.1379Z" fill="white"/>
</svg>
