<svg width="32" height="32" viewBox="0 0 32 32" fill="none" xmlns="http://www.w3.org/2000/svg">
<circle cx="16" cy="16" r="16" fill="#2E3B7D"/>
<path fill-rule="evenodd" clip-rule="evenodd" d="M14.1896 18.9014V13.6904C15.9826 14.5609 17.3712 15.4018 19.0136 16.3084C17.659 17.0835 15.9826 17.9531 14.1896 18.9014ZM24.1819 11.0988C23.8726 10.6783 23.3455 10.3511 22.7843 10.2427C21.1347 9.91955 10.8439 9.91863 9.19524 10.2427C8.7452 10.3298 8.34445 10.5402 8.0002 10.8671C6.54967 12.2561 7.0042 19.7051 7.35383 20.9118C7.50086 21.4341 7.69092 21.8107 7.93028 22.058C8.23868 22.3849 8.66092 22.61 9.14592 22.7109C10.5041 23.0007 17.5012 23.1628 22.7556 22.7544C23.2397 22.6674 23.6682 22.435 24.0062 22.0943C25.3473 20.7108 25.2559 12.8434 24.1819 11.0988Z" fill="white"/>
</svg>
